<svg width="19" height="19" viewBox="0 0 19 19" fill="none" xmlns="http://www.w3.org/2000/svg">
<g clip-path="url(#clip0_615_2066)">
<path d="M0.734375 0.500244H18.5644V10.1254L17.6818 11.5044L18.5644 12.7317V18.3302H0.734375V9.25666L1.28596 8.62234L0.734375 8.01559V0.500244Z" fill="#016FD0"/>
<path d="M4.19531 12.9245V10.1252H7.15925L7.47725 10.5398L7.80576 10.1252H18.5641V12.7315C18.5641 12.7315 18.2828 12.9217 17.9574 12.9245H12.0002L11.6417 12.4833V12.9245H10.4668V12.1713C10.4668 12.1713 10.3063 12.2764 9.95938 12.2764H9.55948V12.9245H7.78062L7.46307 12.5011L7.14065 12.9245H4.19531Z" fill="white"/>
<path d="M0.734375 8.0155L1.40275 6.45728H2.55865L2.93796 7.33013V6.45728H4.37484L4.60064 7.08815L4.81955 6.45728H11.2697V6.77444C11.2697 6.77444 11.6087 6.45728 12.166 6.45728L14.2588 6.46459L14.6316 7.32602V6.45728H15.834L16.165 6.9521V6.45728H17.3785V9.25657H16.165L15.8478 8.76014V9.25657H14.0811L13.9035 8.8153H13.4285L13.2538 9.25657H12.0557C11.5762 9.25657 11.2697 8.94588 11.2697 8.94588V9.25657H9.46321L9.10468 8.8153V9.25657H2.38741L2.20987 8.8153H1.73644L1.56015 9.25657H0.734375V8.0155Z" fill="white"/>
<path d="M1.63978 6.80103L0.738281 8.89705H1.3252L1.49154 8.47733H2.45854L2.62401 8.89705H3.22386L2.32323 6.80103H1.63978ZM1.97332 7.28883L2.26807 8.02227H1.6777L1.97332 7.28883Z" fill="#016FD0"/>
<path d="M3.28516 8.89705V6.80103L4.1192 6.80412L4.60431 8.15551L5.07781 6.80103H5.90519V8.89705H5.38118V7.35261L4.82572 8.89705H4.36617L3.80916 7.35261V8.89705H3.28516Z" fill="#016FD0"/>
<path d="M6.26367 8.89705V6.80103H7.97359V7.26987H6.79319V7.6284H7.94601V8.06967H6.79319V8.44199H7.97359V8.89705H6.26367Z" fill="#016FD0"/>
<path d="M8.27734 6.80103V8.89705H8.80135V8.15241H9.02198L9.65027 8.89705H10.2906L9.60115 8.12483C9.88412 8.10095 10.176 7.85809 10.176 7.48103C10.176 7.03995 9.82981 6.80103 9.44343 6.80103H8.27734ZM8.80135 7.26987H9.40034C9.54403 7.26987 9.64855 7.38227 9.64855 7.49051C9.64855 7.62976 9.51312 7.71114 9.40809 7.71114H8.80135V7.26987Z" fill="#016FD0"/>
<path d="M10.9257 8.89705H10.3906V6.80103H10.9257V8.89705Z" fill="#016FD0"/>
<path d="M12.1932 8.89705H12.0777C11.519 8.89705 11.1797 8.45682 11.1797 7.85766C11.1797 7.24369 11.5152 6.80103 12.2208 6.80103H12.8V7.29745H12.1996C11.9132 7.29745 11.7106 7.521 11.7106 7.86283C11.7106 8.26875 11.9422 8.43923 12.276 8.43923H12.4139L12.1932 8.89705Z" fill="#016FD0"/>
<path d="M13.3351 6.80103L12.4336 8.89705H13.0205L13.1869 8.47733H14.1539L14.3193 8.89705H14.9192L14.0185 6.80103H13.3351ZM13.6686 7.28883L13.9634 8.02227H13.373L13.6686 7.28883Z" fill="#016FD0"/>
<path d="M14.9805 8.89705V6.80103H15.6467L16.4973 8.11794V6.80103H17.0213V8.89705H16.3767L15.5045 7.54567V8.89705H14.9805Z" fill="#016FD0"/>
<path d="M4.55469 12.565V10.469H6.2646V10.9378H5.08421V11.2964H6.23702V11.7376H5.08421V12.11H6.2646V12.565H4.55469Z" fill="#016FD0"/>
<path d="M12.9336 12.565V10.469H14.6435V10.9378H13.4631V11.2964H14.6104V11.7376H13.4631V12.11H14.6435V12.565H12.9336Z" fill="#016FD0"/>
<path d="M6.33037 12.565L7.16292 11.5299L6.31055 10.469H6.97073L7.47836 11.1249L7.98771 10.469H8.62203L7.78087 11.517L8.61495 12.565H7.95487L7.46198 11.9195L6.98107 12.565H6.33037Z" fill="#016FD0"/>
<path d="M8.67578 10.469V12.565H9.21358V11.9031H9.76516C10.2319 11.9031 10.5856 11.6555 10.5856 11.174C10.5856 10.7751 10.3082 10.469 9.83325 10.469H8.67578ZM9.21358 10.943H9.79447C9.94524 10.943 10.053 11.0354 10.053 11.1843C10.053 11.3242 9.94579 11.4256 9.79274 11.4256H9.21358V10.943Z" fill="#016FD0"/>
<path d="M10.8145 10.469V12.565H11.3385V11.8204H11.5591L12.1874 12.565H12.8277L12.1383 11.7928C12.4212 11.7689 12.7131 11.5261 12.7131 11.149C12.7131 10.7079 12.3669 10.469 11.9805 10.469H10.8145ZM11.3385 10.9378H11.9374C12.0811 10.9378 12.1857 11.0502 12.1857 11.1585C12.1857 11.2977 12.0502 11.3791 11.9452 11.3791H11.3385V10.9378Z" fill="#016FD0"/>
<path d="M14.8849 12.565V12.11H15.9336C16.0888 12.11 16.156 12.0261 16.156 11.9341C16.156 11.846 16.089 11.7569 15.9336 11.7569H15.4597C15.0478 11.7569 14.8184 11.506 14.8184 11.1292C14.8184 10.7931 15.0284 10.469 15.6406 10.469H16.661L16.4404 10.9406H15.5578C15.3891 10.9406 15.3372 11.0291 15.3372 11.1137C15.3372 11.2006 15.4014 11.2964 15.5302 11.2964H16.0267C16.4859 11.2964 16.6851 11.5568 16.6851 11.8979C16.6851 12.2647 16.4631 12.565 16.0017 12.565H14.8849Z" fill="#016FD0"/>
<path d="M16.8087 12.565V12.11H17.8574C18.0126 12.11 18.0798 12.0261 18.0798 11.9341C18.0798 11.846 18.0128 11.7569 17.8574 11.7569H17.3835C16.9716 11.7569 16.7422 11.506 16.7422 11.1292C16.7422 10.7931 16.9523 10.469 17.5644 10.469H18.5848L18.3642 10.9406H17.4817C17.313 10.9406 17.261 11.0291 17.261 11.1137C17.261 11.2006 17.3252 11.2964 17.4541 11.2964H17.9505C18.4097 11.2964 18.609 11.5568 18.609 11.8979C18.609 12.2647 18.3869 12.565 17.9255 12.565H16.8087Z" fill="#016FD0"/>
</g>
<defs>
<clipPath id="clip0_615_2066">
<rect width="17.8744" height="17.83" fill="white" transform="translate(0.734375 0.5)"/>
</clipPath>
</defs>
</svg>
