<svg width="8" height="11" viewBox="0 0 8 11" fill="none" xmlns="http://www.w3.org/2000/svg">
<path d="M3.108 6.752C3.108 6.40667 3.164 6.10333 3.276 5.842C3.388 5.58067 3.53267 5.34733 3.71 5.142C3.88733 4.93667 4.074 4.74533 4.27 4.568C4.47533 4.39067 4.66667 4.218 4.844 4.05C5.02133 3.882 5.166 3.70467 5.278 3.518C5.39 3.33133 5.446 3.12133 5.446 2.888C5.446 2.496 5.28733 2.17867 4.97 1.936C4.65267 1.69333 4.228 1.572 3.696 1.572C3.18267 1.572 2.73467 1.66533 2.352 1.852C1.97867 2.03867 1.666 2.30467 1.414 2.65L0.056 1.768C0.448 1.236 0.961333 0.820666 1.596 0.521999C2.23067 0.213999 2.982 0.0599995 3.85 0.0599995C4.53133 0.0599995 5.12867 0.162666 5.642 0.368C6.15533 0.563999 6.55667 0.853333 6.846 1.236C7.13533 1.60933 7.28 2.06667 7.28 2.608C7.28 2.98133 7.21933 3.308 7.098 3.588C6.986 3.868 6.83667 4.11533 6.65 4.33C6.47267 4.53533 6.28133 4.73133 6.076 4.918C5.87067 5.09533 5.67467 5.27267 5.488 5.45C5.31067 5.62733 5.166 5.81867 5.054 6.024C4.942 6.22933 4.886 6.472 4.886 6.752H3.108ZM4.004 10.098C3.67733 10.098 3.40667 9.99067 3.192 9.776C2.98667 9.56133 2.884 9.30467 2.884 9.006C2.884 8.70733 2.98667 8.45533 3.192 8.25C3.40667 8.03533 3.67733 7.928 4.004 7.928C4.33067 7.928 4.59667 8.03533 4.802 8.25C5.00733 8.45533 5.11 8.70733 5.11 9.006C5.11 9.30467 5.00733 9.56133 4.802 9.776C4.59667 9.99067 4.33067 10.098 4.004 10.098Z" fill="white"/>
</svg>
