<svg width="1412" height="1349" viewBox="0 0 1412 1349" fill="none" xmlns="http://www.w3.org/2000/svg">
<path d="M733.175 514.673L546.225 702.504L388.524 1002.05L696.172 876.415C696.172 876.415 812.465 757.479 948.141 618.808C951.136 615.813 954.132 612.817 957.303 609.645C956.07 578.458 946.731 554.671 929.816 537.755C912.9 520.84 884.356 510.62 849.292 510.62H737.051L732.999 514.673H733.175Z" fill="#FD5602"/>
<path d="M1211.21 39.1045L981.796 267.286C1021.79 280.325 1058.8 300.764 1093.51 327.899C1119.59 348.691 1142.84 374.064 1162.93 403.842C1271.82 295.302 1374.73 193.81 1377.19 192.929C1484.15 78.0451 1313.23 -72.0787 1211.21 38.9283V39.1045Z" fill="#FD5602"/>
<path d="M1185.84 443.311C1178.97 430.449 1171.74 418.291 1164.16 406.838C1163.64 406.133 1163.28 405.428 1162.75 404.723C1162.75 404.723 1162.75 404.371 1162.4 404.195C1142.32 374.593 1119.59 348.867 1093.68 328.252C1059.32 301.117 1021.26 280.325 981.795 267.286C981.443 267.286 981.267 267.11 980.914 266.934H980.562C943.207 254.776 901.095 245.437 853.873 245.261H370.2C322.273 245.437 279.28 252.133 241.749 264.467C201.046 277.506 165.63 300.412 130.389 328.075C93.3869 357.501 62.1992 396.266 37.3547 443.311C13.2151 488.771 0.881008 544.275 0 609.293V993.06C1.93822 1054.38 14.2723 1107.06 37.1785 1150.41C37.7071 1151.47 38.2358 1152.35 38.7644 1153.4C45.9886 1168.2 54.0939 1182.12 62.904 1194.99C82.11 1222.65 103.783 1245.73 129.156 1265.29C132.68 1267.93 136.204 1270.58 139.904 1273.22C174.263 1298.77 211.442 1317.62 251.264 1329.43C252.321 1329.78 253.554 1330.13 254.611 1330.31C267.122 1334.19 279.632 1337.36 292.318 1340C314.872 1344.93 336.545 1347.75 357.337 1348.64H866.031C886.823 1347.75 908.496 1345.11 931.049 1340C943.56 1337.36 956.07 1334.19 968.58 1330.31C969.638 1329.96 970.871 1329.61 971.928 1329.43C1011.75 1317.62 1048.93 1298.77 1083.29 1273.22L1093.86 1265.29C1119.23 1245.73 1141.08 1222.47 1160.29 1194.99C1169.27 1182.12 1177.2 1168.2 1184.43 1153.4C1184.96 1152.35 1185.48 1151.47 1186.01 1150.41C1208.92 1107.06 1221.25 1054.38 1223.19 993.06V609.293C1222.31 544.275 1209.98 488.771 1185.84 443.311ZM957.48 976.321C957.48 1011.03 948.141 1037.82 929.816 1055.96C911.491 1074.11 884.885 1083.63 849.292 1083.63H374.252C338.659 1083.63 311.877 1074.29 293.728 1055.96C275.403 1037.64 266.064 1011.03 266.064 976.321V617.046C266.064 582.334 275.403 556.08 293.728 537.755C312.053 519.43 339.188 510.62 374.252 510.62H729.651H729.475H849.644C884.885 510.62 912.02 519.43 930.168 537.755C947.084 554.671 956.246 579.163 957.48 610.174V976.145V976.321Z" fill="white"/>
</svg>
