<svg width="36" height="41" viewBox="0 0 36 41" fill="none" xmlns="http://www.w3.org/2000/svg">
<rect x="0.185059" y="0.422852" width="34.8454" height="40" fill="#012555" fill-opacity="0.08"/>
<path d="M3.52612 37.7548H31.4742V3.11902H11.4298L3.52612 10.9946V37.7548Z" fill="white"/>
<path fill-rule="evenodd" clip-rule="evenodd" d="M9.30651 11.6961H3.59155V10.9853L3.60091 10.9759L11.5139 3.09094H12.1313V3.10965L12.1032 8.90879C12.0938 10.4521 10.8405 11.6961 9.30651 11.6961ZM3.63832 11.6494H9.30651C10.8124 11.6494 12.0377 10.424 12.0471 8.91814L12.0751 3.13771H11.5233L3.63832 11.004V11.6494Z" fill="#DDDDDD"/>
<path d="M5.56519 18.6737H23.3554V18.7018H5.56519V18.6737Z" fill="#DDDDDD"/>
<path d="M22.7849 16.9995H31.6894V21.1524H22.7849C22.5511 21.1524 22.364 20.9654 22.364 20.7315V17.4204C22.364 17.1959 22.5511 16.9995 22.7849 16.9995Z" fill="#002655"/>
<path d="M24.0007 18.4119H24.6555C25.1231 18.4119 25.4505 18.6925 25.4505 19.1321C25.4505 19.5717 25.1231 19.8523 24.6555 19.8523H24.0007V18.4119ZM24.6368 19.581C24.9267 19.581 25.1138 19.4127 25.1138 19.1321C25.1138 18.8515 24.9267 18.6831 24.6368 18.6831H24.3281V19.5717H24.6368V19.581Z" fill="white"/>
<path d="M25.6096 19.1321C25.6096 18.7018 25.9463 18.3838 26.3953 18.3838C26.8443 18.3838 27.181 18.7018 27.181 19.1321C27.181 19.5623 26.8443 19.8803 26.3953 19.8803C25.9463 19.8803 25.6096 19.5623 25.6096 19.1321ZM26.8443 19.1321C26.8443 18.8608 26.6479 18.6737 26.3953 18.6737C26.1428 18.6737 25.9463 18.8608 25.9463 19.1321C25.9463 19.4033 26.1428 19.5904 26.3953 19.5904C26.6479 19.5904 26.8443 19.4033 26.8443 19.1321Z" fill="white"/>
<path d="M27.3494 19.1321C27.3494 18.7018 27.6861 18.3838 28.1351 18.3838C28.3876 18.3838 28.5934 18.4773 28.7243 18.6363L28.5092 18.8328C28.4157 18.7205 28.2941 18.6644 28.1444 18.6644C27.8732 18.6644 27.6861 18.8515 27.6861 19.1227C27.6861 19.394 27.8732 19.581 28.1444 19.581C28.2847 19.581 28.4063 19.5249 28.5092 19.4127L28.7243 19.6091C28.584 19.7775 28.3782 19.871 28.1257 19.871C27.6767 19.8803 27.3494 19.5623 27.3494 19.1321Z" fill="white"/>
<path d="M29.8281 19.8523L29.482 19.3566L29.1359 19.8523H28.7524L29.2856 19.1227L28.7805 18.4119H29.1546L29.482 18.8795L29.8094 18.4119H30.1742L29.6691 19.104L30.2022 19.8523H29.8281Z" fill="white"/>
<path d="M22.7849 11.668H31.6894V15.8209H22.7849C22.5511 15.8209 22.364 15.6338 22.364 15.4V12.0889C22.364 11.8644 22.5511 11.668 22.7849 11.668Z" fill="#002655"/>
<path d="M26.227 13.5948C26.227 13.9129 25.9838 14.1186 25.6003 14.1186H25.3104V14.5115H24.9736V13.071H25.6003C25.9838 13.071 26.227 13.2675 26.227 13.5948ZM25.8903 13.5948C25.8903 13.4358 25.7874 13.3423 25.5816 13.3423H25.3104V13.838H25.5816C25.7874 13.838 25.8903 13.7538 25.8903 13.5948Z" fill="white"/>
<path d="M26.4607 13.071H27.1154C27.5831 13.071 27.9105 13.3516 27.9105 13.7913C27.9105 14.2309 27.5831 14.5115 27.1154 14.5115H26.4607V13.071ZM27.0967 14.2402C27.3867 14.2402 27.5738 14.0719 27.5738 13.7913C27.5738 13.5107 27.3867 13.3423 27.0967 13.3423H26.7881V14.2309H27.0967V14.2402Z" fill="white"/>
<path d="M28.4905 13.3423V13.7258H29.1546V13.9971H28.4905V14.5209H28.1538V13.0804H29.2388V13.3517L28.4905 13.3423Z" fill="white"/>
<path d="M5.96732 32.9939H26.124C26.3204 32.9939 26.4888 33.1529 26.4888 33.3587C26.4888 33.5551 26.3298 33.7235 26.124 33.7235H5.96732C5.7709 33.7235 5.60254 33.5645 5.60254 33.3587C5.60254 33.1623 5.7709 32.9939 5.96732 32.9939Z" fill="#DDDDDD"/>
<path d="M5.96732 27.4753H26.124C26.3204 27.4753 26.4888 27.6343 26.4888 27.8401C26.4888 28.0365 26.3298 28.2049 26.124 28.2049H5.96732C5.7709 28.2049 5.60254 28.0459 5.60254 27.8401C5.60254 27.6437 5.7709 27.4753 5.96732 27.4753Z" fill="#002655"/>
<path d="M5.96732 24.7161H26.124C26.3204 24.7161 26.4888 24.8751 26.4888 25.0808C26.4888 25.2773 26.3298 25.4456 26.124 25.4456H5.96732C5.7709 25.4456 5.60254 25.2866 5.60254 25.0808C5.60254 24.8844 5.7709 24.7161 5.96732 24.7161Z" fill="#002655"/>
<path d="M5.96732 30.2346H18.2391C18.4355 30.2346 18.6038 30.3936 18.6038 30.5994C18.6038 30.7958 18.4448 30.9642 18.2391 30.9642H5.96732C5.7709 30.9642 5.60254 30.8052 5.60254 30.5994C5.60254 30.403 5.7709 30.2346 5.96732 30.2346Z" fill="#DDDDDD"/>
<path d="M5.96732 21.9568H18.2391C18.4355 21.9568 18.6038 22.1158 18.6038 22.3216C18.6038 22.518 18.4448 22.6864 18.2391 22.6864H5.96732C5.7709 22.6864 5.60254 22.5273 5.60254 22.3216C5.60254 22.1251 5.7709 21.9568 5.96732 21.9568Z" fill="#DDDDDD"/>
<path d="M6.65953 15.5309C6.74371 15.4935 6.80918 15.4374 6.85595 15.3626C6.90272 15.2878 6.92143 15.2036 6.92143 15.11C6.92143 15.0071 6.90272 14.923 6.85595 14.8481C6.80918 14.7733 6.74371 14.7172 6.65953 14.6798C6.57535 14.6424 6.47246 14.6237 6.36022 14.6237H5.83643V15.9986H6.02349V15.5871H6.36022C6.39763 15.5871 6.42569 15.5871 6.45375 15.5871L6.75306 16.0173H6.96819L6.63147 15.5496C6.64082 15.5309 6.65018 15.5309 6.65953 15.5309ZM6.73436 15.11C6.73436 15.2129 6.7063 15.2784 6.64082 15.3345C6.57535 15.3906 6.48181 15.4187 6.35087 15.4187H6.02349V14.8014H6.35087C6.48181 14.8014 6.57535 14.8294 6.64082 14.8856C6.7063 14.9323 6.73436 15.0071 6.73436 15.11Z" fill="#002655"/>
<path d="M7.85666 15.0165C7.78183 14.9698 7.6883 14.951 7.59476 14.951C7.50123 14.951 7.40769 14.9698 7.33287 15.0165C7.25804 15.0633 7.19256 15.1288 7.1458 15.2036C7.09903 15.2784 7.08032 15.372 7.08032 15.4748C7.08032 15.5777 7.10838 15.6713 7.1458 15.7461C7.19256 15.8303 7.25804 15.8864 7.34222 15.9332C7.4264 15.9799 7.51993 15.9986 7.62282 15.9986C7.707 15.9986 7.78183 15.9799 7.84731 15.9519C7.91278 15.9238 7.97825 15.877 8.02502 15.8209L8.03437 15.8022L7.93149 15.6806L7.91278 15.6993C7.87537 15.7367 7.83795 15.7742 7.78183 15.7929C7.73506 15.8116 7.67894 15.8209 7.62282 15.8209C7.548 15.8209 7.48252 15.8022 7.4264 15.7742C7.37028 15.7461 7.32351 15.6993 7.29545 15.6526C7.27675 15.6151 7.25804 15.5684 7.24868 15.5216H8.09985V15.5029C8.09985 15.4936 8.09985 15.4935 8.09985 15.4842C8.09985 15.4748 8.09985 15.4655 8.09985 15.4655C8.09985 15.3626 8.08114 15.2691 8.03437 15.1849C7.98761 15.1288 7.93149 15.0633 7.85666 15.0165ZM7.30481 15.2784C7.33287 15.2223 7.37028 15.1849 7.4264 15.1568C7.47317 15.1288 7.53864 15.1101 7.59476 15.1101C7.66024 15.1101 7.71636 15.1288 7.76312 15.1568C7.80989 15.1849 7.85666 15.2317 7.88472 15.2784C7.90343 15.3158 7.92213 15.3532 7.92213 15.4H7.26739C7.26739 15.3532 7.2861 15.3158 7.30481 15.2784Z" fill="#002655"/>
<path d="M9.03519 15.7087C9.00713 15.7555 8.96036 15.7929 8.91359 15.8116C8.86682 15.8303 8.8107 15.849 8.75458 15.849C8.68911 15.849 8.62363 15.8303 8.57687 15.8022C8.52075 15.7742 8.48333 15.7274 8.45527 15.6713C8.42721 15.6152 8.4085 15.5497 8.4085 15.4749C8.4085 15.4 8.42721 15.3346 8.45527 15.2785C8.48333 15.2223 8.5301 15.1849 8.57687 15.1475C8.63299 15.1194 8.68911 15.1007 8.75458 15.1007C8.8107 15.1007 8.86682 15.1101 8.91359 15.1381C8.96036 15.1569 8.99777 15.1943 9.03519 15.241L9.04454 15.2597L9.18484 15.1662L9.17549 15.1475C9.13807 15.082 9.0726 15.0259 9.00713 14.9885C8.9323 14.9511 8.85747 14.9324 8.76394 14.9324C8.66105 14.9324 8.56751 14.9511 8.48333 14.9978C8.39915 15.0446 8.33368 15.1101 8.28691 15.1849C8.24014 15.2597 8.22144 15.3533 8.22144 15.4562C8.22144 15.5591 8.2495 15.6526 8.28691 15.7274C8.33368 15.8116 8.39915 15.8677 8.48333 15.9145C8.56751 15.9613 8.66105 15.98 8.76394 15.98C8.84812 15.98 8.9323 15.9613 9.00713 15.9238C9.08195 15.8864 9.13807 15.8397 9.17549 15.7648L9.18484 15.7461L9.04454 15.6526L9.03519 15.7087Z" fill="#002655"/>
<path d="M10.0829 15.0165C9.9987 14.9698 9.91452 14.951 9.81164 14.951C9.70875 14.951 9.61521 14.9698 9.54039 15.0165C9.46556 15.0633 9.40008 15.1288 9.35332 15.2036C9.30655 15.2784 9.28784 15.372 9.28784 15.4748C9.28784 15.5777 9.3159 15.6713 9.35332 15.7461C9.40008 15.8303 9.46556 15.8864 9.54039 15.9332C9.62457 15.9799 9.70875 15.9986 9.81164 15.9986C9.91452 15.9986 10.0081 15.9799 10.0829 15.9332C10.1671 15.8864 10.2232 15.8209 10.27 15.7461C10.3167 15.6619 10.3354 15.5777 10.3354 15.4748C10.3354 15.372 10.3167 15.2784 10.27 15.2036C10.2232 15.1288 10.1671 15.0633 10.0829 15.0165ZM9.81164 15.849C9.74616 15.849 9.69004 15.8303 9.63392 15.8022C9.5778 15.7742 9.54038 15.7274 9.51232 15.6713C9.48426 15.6151 9.46556 15.5497 9.46556 15.4748C9.46556 15.4 9.48426 15.3345 9.51232 15.2784C9.54038 15.2223 9.58715 15.1849 9.63392 15.1475C9.69004 15.1194 9.74616 15.1007 9.81164 15.1007C9.87711 15.1007 9.94258 15.1194 9.98935 15.1475C10.0455 15.1755 10.0829 15.2223 10.1109 15.2784C10.139 15.3345 10.1577 15.4 10.1577 15.4748C10.1577 15.5497 10.139 15.6151 10.1109 15.6713C10.0829 15.7274 10.0361 15.7648 9.98935 15.8022C9.93323 15.8303 9.87711 15.849 9.81164 15.849Z" fill="#002655"/>
<path d="M12.0659 14.9979C12.0004 14.9698 11.9256 14.9511 11.8414 14.9511C11.7292 14.9511 11.6356 14.9792 11.5608 15.026C11.514 15.054 11.4766 15.0914 11.4486 15.1288C11.4205 15.0821 11.3924 15.0447 11.355 15.0166C11.2802 14.9698 11.196 14.9418 11.0931 14.9418C10.9996 14.9418 10.9154 14.9605 10.8406 15.0072C10.8032 15.026 10.7751 15.054 10.7471 15.0821V14.9511H10.5693V15.9987H10.7471V15.4469C10.7471 15.372 10.7564 15.3159 10.7845 15.2598C10.8125 15.213 10.8499 15.1756 10.8874 15.1475C10.9341 15.1195 10.9902 15.1101 11.0557 15.1101C11.1399 15.1101 11.2054 15.1382 11.2521 15.185C11.2989 15.2317 11.3176 15.3066 11.3176 15.4094V15.9987H11.4953V15.4469C11.4953 15.372 11.5047 15.3159 11.5327 15.2598C11.5608 15.213 11.5889 15.1756 11.6356 15.1475C11.6824 15.1195 11.7385 15.1101 11.804 15.1101C11.8882 15.1101 11.9536 15.1382 12.0004 15.185C12.0472 15.2317 12.0659 15.3066 12.0659 15.4094V15.9987H12.2436V15.4001C12.2436 15.2972 12.2249 15.213 12.1875 15.1475C12.1781 15.0821 12.122 15.0353 12.0659 14.9979Z" fill="#002655"/>
<path d="M13.2536 15.0165C13.1788 14.9698 13.0853 14.951 12.9917 14.951C12.8982 14.951 12.8047 14.9698 12.7298 15.0165C12.655 15.0633 12.5895 15.1288 12.5428 15.2036C12.496 15.2784 12.4773 15.372 12.4773 15.4748C12.4773 15.5777 12.5054 15.6713 12.5428 15.7461C12.5895 15.8303 12.655 15.8864 12.7392 15.9332C12.8234 15.9799 12.9169 15.9986 13.0198 15.9986C13.104 15.9986 13.1788 15.9799 13.2443 15.9519C13.3098 15.9238 13.3752 15.877 13.422 15.8209L13.4313 15.8022L13.3285 15.6806L13.3098 15.6993C13.2723 15.7367 13.2349 15.7742 13.1788 15.7929C13.132 15.8116 13.0759 15.8209 13.0198 15.8209C12.945 15.8209 12.8795 15.8022 12.8234 15.7742C12.7673 15.7461 12.7205 15.6993 12.6924 15.6526C12.6737 15.6151 12.655 15.5684 12.6457 15.5216H13.4781V15.5029C13.4781 15.4936 13.4781 15.4935 13.4781 15.4842C13.4781 15.4748 13.4781 15.4655 13.4781 15.4655C13.4781 15.3626 13.4594 15.2691 13.4126 15.1849C13.3939 15.1288 13.3285 15.0633 13.2536 15.0165ZM12.7018 15.2784C12.7298 15.2223 12.7673 15.1849 12.8234 15.1568C12.8701 15.1288 12.9356 15.1101 12.9917 15.1101C13.0572 15.1101 13.1133 15.1288 13.1601 15.1568C13.2069 15.1849 13.2536 15.2317 13.2817 15.2784C13.3004 15.3158 13.3191 15.3532 13.3191 15.4H12.6644C12.6737 15.3532 12.6831 15.3158 12.7018 15.2784Z" fill="#002655"/>
<path d="M14.4883 14.9978C14.4229 14.9698 14.348 14.951 14.2639 14.951C14.161 14.951 14.0768 14.9698 14.002 15.0165C13.9645 15.0352 13.9365 15.0633 13.9084 15.0914V14.9604H13.7307V16.008H13.9084V15.4561C13.9084 15.3813 13.9178 15.3252 13.9458 15.2691C13.9739 15.2223 14.0113 15.1849 14.0581 15.1568C14.1049 15.1288 14.161 15.1194 14.2358 15.1194C14.32 15.1194 14.3948 15.1475 14.4416 15.1942C14.4883 15.241 14.5164 15.3158 14.5164 15.4187V16.008H14.6941V15.4C14.6941 15.2971 14.6754 15.2129 14.638 15.1475C14.6006 15.082 14.5538 15.0352 14.4883 14.9978Z" fill="#002655"/>
<path d="M15.7884 15.1008C15.7603 15.0633 15.7229 15.0353 15.6762 15.0072C15.6013 14.9698 15.5172 14.9417 15.433 14.9417C15.3301 14.9417 15.2459 14.9605 15.1617 15.0072C15.0869 15.054 15.0214 15.1101 14.9747 15.1943C14.9279 15.2691 14.9092 15.3627 14.9092 15.4749C14.9092 15.5778 14.9279 15.6713 14.9747 15.7555C15.0214 15.8397 15.0869 15.8958 15.1617 15.9426C15.2366 15.9893 15.3301 16.008 15.433 16.008C15.5265 16.008 15.6107 15.9893 15.6855 15.9426C15.7323 15.9145 15.7697 15.8864 15.7978 15.849V15.9987H15.9755V14.5396H15.7978L15.7884 15.1008ZM15.62 15.8023C15.5639 15.8303 15.5078 15.849 15.4423 15.849C15.3769 15.849 15.3207 15.8303 15.2646 15.8023C15.2085 15.7742 15.1711 15.7274 15.143 15.6713C15.115 15.6152 15.0962 15.5497 15.0962 15.4749C15.0962 15.4001 15.115 15.3346 15.143 15.2785C15.1711 15.2224 15.2178 15.1849 15.2646 15.1475C15.3207 15.1195 15.3769 15.1008 15.4423 15.1008C15.5078 15.1008 15.5733 15.1195 15.62 15.1475C15.6762 15.1756 15.7136 15.2224 15.7416 15.2785C15.7697 15.3346 15.7884 15.4001 15.7884 15.4749C15.7884 15.5497 15.7697 15.6152 15.7416 15.6713C15.7136 15.7274 15.6762 15.7742 15.62 15.8023Z" fill="#002655"/>
<path d="M16.677 14.951C16.5928 14.951 16.518 14.9604 16.4432 14.9885C16.3683 15.0165 16.3029 15.0446 16.2561 15.0914L16.2374 15.1007L16.3216 15.241L16.3403 15.2223C16.3777 15.1849 16.4245 15.1662 16.4806 15.1381C16.5367 15.1194 16.5928 15.1101 16.6583 15.1101C16.7425 15.1101 16.8079 15.1288 16.8547 15.1755C16.9015 15.2129 16.9202 15.2784 16.9202 15.3532V15.3907H16.6302C16.5367 15.3907 16.4525 15.4 16.3964 15.4281C16.3403 15.4561 16.2935 15.4936 16.2654 15.5403C16.2374 15.5871 16.228 15.6339 16.228 15.69C16.228 15.7554 16.2467 15.8022 16.2748 15.8583C16.3029 15.9051 16.3496 15.9425 16.4151 15.9706C16.4712 15.9986 16.546 16.008 16.6209 16.008C16.7238 16.008 16.8079 15.9893 16.8734 15.9425C16.9015 15.9238 16.9202 15.9051 16.9482 15.8864V15.9986H17.126V15.3532C17.126 15.2129 17.0885 15.1101 17.0137 15.0446C16.9108 14.9885 16.8079 14.951 16.677 14.951ZM16.8079 15.8116C16.7612 15.8396 16.6957 15.8583 16.6209 15.8583C16.546 15.8583 16.4899 15.8396 16.4525 15.8116C16.4151 15.7835 16.3964 15.7461 16.3964 15.69C16.3964 15.6432 16.4151 15.6058 16.4432 15.5777C16.4712 15.5497 16.5367 15.531 16.6302 15.531H16.9202V15.6619C16.9015 15.7367 16.8641 15.7835 16.8079 15.8116Z" fill="#002655"/>
<path d="M18.1267 15.7087C18.0987 15.7555 18.0519 15.7929 18.0051 15.8116C17.9584 15.8303 17.9023 15.849 17.8461 15.849C17.7807 15.849 17.7152 15.8303 17.6684 15.8022C17.6123 15.7742 17.5749 15.7274 17.5468 15.6713C17.5188 15.6152 17.5001 15.5497 17.5001 15.4749C17.5001 15.4 17.5188 15.3346 17.5468 15.2785C17.5749 15.2223 17.6217 15.1849 17.6684 15.1475C17.7245 15.1194 17.7807 15.1007 17.8461 15.1007C17.9023 15.1007 17.9584 15.1101 18.0051 15.1381C18.0519 15.1569 18.0893 15.1943 18.1267 15.241L18.1361 15.2597L18.2764 15.1662L18.267 15.1475C18.2296 15.082 18.1642 15.0259 18.0987 14.9885C18.0238 14.9511 17.949 14.9324 17.8555 14.9324C17.7526 14.9324 17.6591 14.9511 17.5749 14.9978C17.4907 15.0446 17.4252 15.1101 17.3785 15.1849C17.3317 15.2597 17.313 15.3533 17.313 15.4562C17.313 15.5591 17.341 15.6526 17.3785 15.7274C17.4252 15.8116 17.4907 15.8677 17.5749 15.9145C17.6591 15.9613 17.7526 15.98 17.8555 15.98C17.9397 15.98 18.0238 15.9613 18.0987 15.9238C18.1735 15.8864 18.2296 15.8397 18.267 15.7648L18.2764 15.7461L18.1361 15.6526L18.1267 15.7087Z" fill="#002655"/>
<path d="M18.6506 14.9604H18.4729V16.008H18.6506V14.9604Z" fill="#002655"/>
<path d="M18.4822 14.5863C18.4542 14.6051 18.4448 14.6331 18.4448 14.6705C18.4448 14.7079 18.4542 14.736 18.4822 14.7547C18.5103 14.7734 18.5384 14.7921 18.5664 14.7921C18.6038 14.7921 18.6319 14.7828 18.6506 14.7547C18.6693 14.7266 18.688 14.6986 18.688 14.6705C18.688 14.6331 18.6787 14.6051 18.6506 14.5863C18.6038 14.5396 18.529 14.5396 18.4822 14.5863Z" fill="#002655"/>
<path d="M19.801 14.5676H19.5485L19.2305 14.8482H19.4362L19.801 14.5676Z" fill="#002655"/>
<path d="M19.6888 15.0165C19.6047 14.9698 19.5205 14.951 19.4176 14.951C19.3147 14.951 19.2212 14.9698 19.1463 15.0165C19.0715 15.0633 19.006 15.1288 18.9593 15.2036C18.9125 15.2784 18.8938 15.372 18.8938 15.4748C18.8938 15.5777 18.9219 15.6713 18.9593 15.7461C19.006 15.8303 19.0715 15.8864 19.1463 15.9332C19.2305 15.9799 19.3147 15.9986 19.4176 15.9986C19.5205 15.9986 19.614 15.9799 19.6888 15.9332C19.773 15.8864 19.8291 15.8209 19.8759 15.7461C19.9227 15.6619 19.9414 15.5777 19.9414 15.4748C19.9414 15.372 19.9227 15.2784 19.8759 15.2036C19.8385 15.1288 19.773 15.0633 19.6888 15.0165ZM19.4176 15.849C19.3521 15.849 19.296 15.8303 19.2399 15.8022C19.1838 15.7742 19.1463 15.7274 19.1183 15.6713C19.0902 15.6151 19.0715 15.5497 19.0715 15.4748C19.0715 15.4 19.0902 15.3345 19.1183 15.2784C19.1463 15.2223 19.1931 15.1849 19.2399 15.1475C19.296 15.1194 19.3521 15.1007 19.4176 15.1007C19.4831 15.1007 19.5485 15.1194 19.5953 15.1475C19.6514 15.1755 19.6888 15.2223 19.7169 15.2784C19.745 15.3345 19.7637 15.4 19.7637 15.4748C19.7637 15.5497 19.745 15.6151 19.7169 15.6713C19.6888 15.7274 19.6421 15.7648 19.5953 15.8022C19.5485 15.8303 19.4831 15.849 19.4176 15.849Z" fill="#002655"/>
<path d="M21.0919 15.1475C21.0544 15.082 21.0077 15.0259 20.9422 14.9978C20.8767 14.9698 20.8019 14.951 20.7177 14.951C20.6148 14.951 20.5306 14.9698 20.4558 15.0165C20.4184 15.0352 20.3903 15.0633 20.3623 15.0914V14.9604H20.1846V16.008H20.3623V15.4561C20.3623 15.3813 20.3716 15.3252 20.3997 15.2691C20.4278 15.2223 20.4652 15.1849 20.5119 15.1568C20.5587 15.1288 20.6148 15.1194 20.6897 15.1194C20.7738 15.1194 20.8487 15.1475 20.8954 15.1942C20.9422 15.241 20.9703 15.3158 20.9703 15.4187V16.008H21.148V15.4C21.1386 15.3065 21.1199 15.2129 21.0919 15.1475Z" fill="#002655"/>
<path d="M6.02349 16.9714H5.83643V18.3464H6.77177V18.178H6.02349V16.9714Z" fill="#002655"/>
<path d="M7.29565 17.2988C7.21146 17.2988 7.13664 17.3082 7.06181 17.3362C6.98698 17.3643 6.92151 17.3924 6.87474 17.4391L6.85603 17.4485L6.94021 17.5888L6.95892 17.5701C6.99633 17.5327 7.0431 17.514 7.09922 17.4859C7.15534 17.4672 7.21146 17.4578 7.27694 17.4578C7.36112 17.4578 7.42659 17.4765 7.47336 17.5233C7.52013 17.5607 7.53884 17.6262 7.53884 17.701V17.7384H7.24888C7.15534 17.7384 7.07116 17.7478 7.01504 17.7759C6.95892 17.8039 6.91215 17.8413 6.88409 17.8881C6.85603 17.9349 6.84668 17.9816 6.84668 18.0378C6.84668 18.1032 6.86539 18.15 6.89345 18.2061C6.92151 18.2529 6.96827 18.2903 7.03375 18.3184C7.08987 18.3464 7.1647 18.3558 7.23952 18.3558C7.34241 18.3558 7.42659 18.3371 7.49207 18.2903C7.52013 18.2716 7.53884 18.2529 7.5669 18.2342V18.3464H7.7259V17.701C7.7259 17.5607 7.68849 17.4578 7.61366 17.3924C7.53884 17.3269 7.43595 17.2988 7.29565 17.2988ZM7.43595 18.1593C7.38918 18.1874 7.32371 18.2061 7.24888 18.2061C7.17405 18.2061 7.11793 18.1874 7.08052 18.1593C7.0431 18.1313 7.0244 18.0939 7.0244 18.0378C7.0244 17.991 7.0431 17.9536 7.07116 17.9255C7.09922 17.8974 7.1647 17.8787 7.25823 17.8787H7.54819V18.0097C7.52013 18.0845 7.48271 18.1313 7.43595 18.1593Z" fill="#002655"/>
<path d="M8.8481 17.3643C8.77327 17.3175 8.67974 17.2988 8.57685 17.2988C8.48331 17.2988 8.40849 17.3175 8.33366 17.3643C8.29624 17.3923 8.25883 17.4204 8.22142 17.4578V16.8966H8.0437V18.3557H8.22142V18.2061C8.25883 18.2435 8.29624 18.2809 8.33366 18.2996C8.40849 18.337 8.49267 18.3651 8.57685 18.3651C8.67974 18.3651 8.76392 18.3464 8.8481 18.2996C8.92293 18.2529 8.9884 18.1874 9.03517 18.1126C9.08193 18.0284 9.10064 17.9442 9.10064 17.832C9.10064 17.7291 9.08193 17.6355 9.03517 17.5513C8.9884 17.4672 8.93228 17.411 8.8481 17.3643ZM8.39913 17.5046C8.45525 17.4765 8.51137 17.4578 8.57685 17.4578C8.64232 17.4578 8.7078 17.4765 8.75456 17.5046C8.81068 17.5326 8.8481 17.5794 8.87616 17.6355C8.90422 17.6916 8.92293 17.7571 8.92293 17.832C8.92293 17.9068 8.90422 17.9723 8.87616 18.0284C8.8481 18.0845 8.80133 18.1219 8.75456 18.1593C8.69844 18.1874 8.64232 18.2061 8.57685 18.2061C8.51137 18.2061 8.4459 18.1874 8.39913 18.1593C8.34301 18.1313 8.3056 18.0845 8.27754 18.0284C8.24948 17.9723 8.23077 17.9068 8.23077 17.832C8.23077 17.7571 8.24948 17.6916 8.27754 17.6355C8.3056 17.5794 8.34301 17.5326 8.39913 17.5046Z" fill="#002655"/>
<path d="M10.036 17.3643C9.95183 17.3175 9.86765 17.2988 9.76476 17.2988C9.66187 17.2988 9.56834 17.3175 9.49351 17.3643C9.41868 17.4111 9.35321 17.4765 9.30644 17.5514C9.25967 17.6262 9.24097 17.7197 9.24097 17.8226C9.24097 17.9255 9.26903 18.019 9.30644 18.0939C9.35321 18.1781 9.41868 18.2342 9.49351 18.2809C9.57769 18.3277 9.66187 18.3464 9.76476 18.3464C9.86765 18.3464 9.96118 18.3277 10.036 18.2809C10.1202 18.2342 10.1763 18.1687 10.2231 18.0939C10.2698 18.0097 10.2886 17.9255 10.2886 17.8226C10.2886 17.7197 10.2698 17.6262 10.2231 17.5514C10.1857 17.4765 10.1202 17.4111 10.036 17.3643ZM9.76476 18.1968C9.69929 18.1968 9.64317 18.1781 9.58704 18.15C9.53092 18.1219 9.49351 18.0752 9.46545 18.019C9.43739 17.9629 9.41868 17.8974 9.41868 17.8226C9.41868 17.7478 9.43739 17.6823 9.46545 17.6262C9.49351 17.5701 9.54028 17.5327 9.58704 17.4952C9.64317 17.4672 9.69929 17.4485 9.76476 17.4485C9.83023 17.4485 9.89571 17.4672 9.94248 17.4952C9.9986 17.5233 10.036 17.5701 10.0641 17.6262C10.0921 17.6823 10.1108 17.7478 10.1108 17.8226C10.1108 17.8974 10.0921 17.9629 10.0641 18.019C10.036 18.0752 9.98924 18.1126 9.94248 18.15C9.89571 18.1781 9.83023 18.1968 9.76476 18.1968Z" fill="#002655"/>
<path d="M10.7937 17.3642C10.7563 17.3829 10.7282 17.411 10.7002 17.4484V17.3175H10.5225V18.3651H10.7002V17.8319C10.7002 17.7197 10.7282 17.6355 10.7844 17.5794C10.8405 17.5232 10.9153 17.4952 11.0182 17.4952H11.0275C11.0369 17.4952 11.0369 17.4952 11.0463 17.4952H11.065V17.3175H11.0463C10.9434 17.2988 10.8592 17.3175 10.7937 17.3642Z" fill="#002655"/>
<path d="M11.5701 17.2988C11.4859 17.2988 11.4111 17.3082 11.3362 17.3362C11.2614 17.3643 11.1959 17.3924 11.1492 17.4391L11.1304 17.4485L11.2146 17.5888L11.2333 17.5701C11.2707 17.5327 11.3175 17.514 11.3736 17.4859C11.4298 17.4672 11.4859 17.4578 11.5514 17.4578C11.6355 17.4578 11.701 17.4765 11.7478 17.5233C11.7945 17.5607 11.8132 17.6262 11.8132 17.701V17.7384H11.5233C11.4298 17.7384 11.3456 17.7478 11.2895 17.7759C11.2333 17.8039 11.1866 17.8413 11.1585 17.8881C11.1304 17.9349 11.1211 17.9816 11.1211 18.0378C11.1211 18.1032 11.1398 18.15 11.1679 18.2061C11.1959 18.2529 11.2427 18.2903 11.3082 18.3184C11.3643 18.3464 11.4391 18.3558 11.5139 18.3558C11.6168 18.3558 11.701 18.3371 11.7665 18.2903C11.7945 18.2716 11.8132 18.2529 11.8413 18.2342V18.3464H12.019V17.701C12.019 17.5607 11.9816 17.4578 11.9068 17.3924C11.8132 17.3269 11.701 17.2988 11.5701 17.2988ZM11.701 18.1593C11.6542 18.1874 11.5888 18.2061 11.5139 18.2061C11.4391 18.2061 11.383 18.1874 11.3456 18.1593C11.3082 18.1313 11.2895 18.0939 11.2895 18.0378C11.2895 17.991 11.3082 17.9536 11.3362 17.9255C11.3643 17.8974 11.4298 17.8787 11.5233 17.8787H11.8132V18.0097C11.7945 18.0845 11.7571 18.1313 11.701 18.1593Z" fill="#002655"/>
<path d="M12.4961 16.8966H12.3184V18.3557H12.4961V16.8966Z" fill="#002655"/>
<path d="M6.12635 12.5846C6.17312 12.5379 6.22924 12.5004 6.29471 12.4724C6.42566 12.4256 6.58467 12.4163 6.71562 12.4724C6.78109 12.4911 6.83721 12.5379 6.88398 12.5846L6.90269 12.6033L7.02428 12.4817L7.00558 12.463C6.94945 12.3975 6.87463 12.3414 6.78109 12.3134C6.69691 12.276 6.60338 12.2666 6.50049 12.2666C6.3976 12.2666 6.30407 12.2853 6.21053 12.3227C6.12635 12.3601 6.04217 12.4069 5.98605 12.4724C5.92058 12.5379 5.87381 12.6127 5.83639 12.6969C5.79898 12.781 5.78027 12.8746 5.78027 12.9775C5.78027 13.0804 5.79898 13.1739 5.83639 13.2581C5.87381 13.3422 5.92058 13.4171 5.98605 13.4826C6.05152 13.548 6.12635 13.5948 6.21053 13.6322C6.29471 13.6696 6.3976 13.6883 6.50049 13.6883C6.60338 13.6883 6.69691 13.6696 6.78109 13.6416C6.86527 13.6041 6.9401 13.5574 7.00558 13.4919L7.02428 13.4732L6.90269 13.3516L6.88398 13.3422C6.82786 13.3984 6.77174 13.4358 6.71562 13.4545C6.58467 13.5013 6.42566 13.5013 6.29471 13.4545C6.22924 13.4264 6.17312 13.389 6.12635 13.3422C6.07958 13.2955 6.04217 13.2394 6.01411 13.1739C5.98605 13.1084 5.9767 13.0429 5.9767 12.9681C5.9767 12.8933 5.98605 12.8185 6.01411 12.7623C6.03282 12.6875 6.07023 12.6314 6.12635 12.5846Z" fill="#002655"/>
<path d="M7.59496 12.6034C7.51078 12.6034 7.43595 12.6127 7.36113 12.6408C7.2863 12.6689 7.22082 12.6969 7.17406 12.7437L7.15535 12.753L7.23953 12.8934L7.25824 12.8746C7.29565 12.8372 7.34242 12.8185 7.39854 12.7905C7.45466 12.7718 7.51078 12.7624 7.57626 12.7624C7.66044 12.7624 7.72591 12.7811 7.77268 12.8279C7.81944 12.8653 7.83815 12.9308 7.83815 13.0056V13.043H7.54819C7.45466 13.043 7.37048 13.0524 7.31436 13.0804C7.25824 13.1085 7.21147 13.1459 7.18341 13.1927C7.15535 13.2394 7.146 13.2862 7.146 13.3423C7.146 13.4078 7.1647 13.4546 7.19276 13.5107C7.22082 13.5574 7.26759 13.5949 7.33307 13.6229C7.38919 13.651 7.46401 13.6603 7.53884 13.6603C7.64173 13.6603 7.72591 13.6416 7.79138 13.5949C7.81944 13.5762 7.83815 13.5574 7.86621 13.5387V13.651H8.04393V13.0056C8.04393 12.8653 8.00651 12.7624 7.93169 12.6969C7.83815 12.6315 7.72591 12.6034 7.59496 12.6034ZM7.73526 13.4639C7.6885 13.492 7.62302 13.5107 7.54819 13.5107C7.47337 13.5107 7.41725 13.492 7.37983 13.4639C7.34242 13.4359 7.32371 13.3984 7.32371 13.3423C7.32371 13.2955 7.34242 13.2581 7.37048 13.2301C7.39854 13.202 7.46401 13.1833 7.55755 13.1833H7.8475V13.3143C7.81944 13.3797 7.78203 13.4265 7.73526 13.4639Z" fill="#002655"/>
<path d="M8.60499 12.6595C8.56758 12.6782 8.53952 12.7063 8.51146 12.7437V12.6127H8.33374V13.6603H8.51146V13.1272C8.51146 13.0149 8.53952 12.9308 8.59564 12.8746C8.65176 12.8185 8.72659 12.7905 8.82947 12.7905H8.83883C8.84818 12.7905 8.84818 12.7905 8.85753 12.7905H8.87624V12.6127H8.85753C8.764 12.6034 8.67982 12.6221 8.60499 12.6595Z" fill="#002655"/>
<path d="M9.61528 13.4545C9.57787 13.4825 9.54045 13.5012 9.48433 13.5012C9.43757 13.5012 9.40015 13.4919 9.37209 13.4638C9.34403 13.4358 9.33468 13.3984 9.33468 13.3422V12.7717H9.63399V12.6127H9.33468V12.3882H9.15696V12.6127H8.97925V12.7717H9.15696V13.3516C9.15696 13.4545 9.18502 13.5293 9.24114 13.5854C9.29727 13.6415 9.37209 13.6696 9.47498 13.6696C9.51239 13.6696 9.55916 13.6603 9.59658 13.6509C9.63399 13.6415 9.6714 13.6228 9.69946 13.5948L9.70882 13.5854L9.64334 13.4451L9.61528 13.4545Z" fill="#002655"/>
<path d="M10.2793 12.6034C10.1951 12.6034 10.1203 12.6127 10.0455 12.6408C9.97062 12.6689 9.90515 12.6969 9.85838 12.7437L9.83968 12.753L9.92386 12.8934L9.94256 12.8746C9.97998 12.8372 10.0267 12.8185 10.0829 12.7905C10.139 12.7718 10.1951 12.7624 10.2606 12.7624C10.3448 12.7624 10.4102 12.7811 10.457 12.8279C10.5038 12.8653 10.5225 12.9308 10.5225 13.0056V13.043H10.2325C10.139 13.043 10.0548 13.0524 9.99868 13.0804C9.94256 13.1085 9.8958 13.1459 9.86774 13.1927C9.83968 13.2394 9.83032 13.2862 9.83032 13.3423C9.83032 13.4078 9.84903 13.4546 9.87709 13.5107C9.90515 13.5574 9.95192 13.5949 10.0174 13.6229C10.0735 13.651 10.1483 13.6603 10.2232 13.6603C10.3261 13.6603 10.4102 13.6416 10.4757 13.5949C10.5038 13.5762 10.5225 13.5574 10.5505 13.5387V13.651H10.7283V13.0056C10.7283 12.8653 10.6908 12.7624 10.616 12.6969C10.5131 12.6315 10.4102 12.6034 10.2793 12.6034ZM10.4102 13.4639C10.3635 13.492 10.298 13.5107 10.2232 13.5107C10.1483 13.5107 10.0922 13.492 10.0548 13.4639C10.0174 13.4359 9.99868 13.3984 9.99868 13.3423C9.99868 13.2955 10.0174 13.2581 10.0455 13.2301C10.0735 13.202 10.139 13.1833 10.2325 13.1833H10.5225V13.3143C10.4944 13.3797 10.457 13.4265 10.4102 13.4639Z" fill="#002655"/>
<path d="M12.2996 12.753C12.2716 12.7156 12.2342 12.6875 12.1874 12.6594C12.1126 12.622 12.0284 12.594 11.9442 12.594C11.8413 12.594 11.7571 12.6127 11.673 12.6594C11.5981 12.7062 11.5327 12.7623 11.4859 12.8465C11.4391 12.9213 11.4204 13.0149 11.4204 13.1271C11.4204 13.23 11.4391 13.3235 11.4859 13.4077C11.5327 13.4919 11.5981 13.548 11.673 13.5948C11.7478 13.6416 11.8413 13.6603 11.9442 13.6603C12.0377 13.6603 12.1219 13.6416 12.1967 13.5948C12.2435 13.5667 12.2809 13.5387 12.309 13.5013V13.6509H12.4867V12.1918H12.309L12.2996 12.753ZM12.1313 13.4451C12.0752 13.4732 12.019 13.4919 11.9536 13.4919C11.8881 13.4919 11.832 13.4732 11.7758 13.4451C11.7197 13.4171 11.6823 13.3703 11.6542 13.3142C11.6262 13.2581 11.6075 13.1926 11.6075 13.1178C11.6075 13.0429 11.6262 12.9775 11.6542 12.9213C11.6823 12.8652 11.7291 12.8278 11.7758 12.7904C11.832 12.7623 11.8881 12.7436 11.9536 12.7436C12.019 12.7436 12.0845 12.7623 12.1313 12.7904C12.1874 12.8185 12.2248 12.8652 12.2529 12.9213C12.2809 12.9775 12.2996 13.0429 12.2996 13.1178C12.2996 13.1926 12.2809 13.2581 12.2529 13.3142C12.2248 13.3797 12.178 13.4171 12.1313 13.4451Z" fill="#002655"/>
<path d="M13.656 12.8559C13.6092 12.7718 13.5531 12.7156 13.4782 12.6689C13.4034 12.6221 13.3099 12.6034 13.2163 12.6034C13.1228 12.6034 13.0293 12.6221 12.9544 12.6689C12.8796 12.7156 12.8141 12.7811 12.7674 12.8559C12.7206 12.9308 12.7019 13.0243 12.7019 13.1272C12.7019 13.2301 12.73 13.3236 12.7674 13.3984C12.8141 13.4826 12.8796 13.5387 12.9638 13.5855C13.048 13.6323 13.1415 13.651 13.2444 13.651C13.3286 13.651 13.4034 13.6323 13.4689 13.6042C13.5344 13.5762 13.5998 13.5294 13.6466 13.4733L13.656 13.4546L13.5531 13.333L13.5344 13.3517C13.4969 13.3891 13.4595 13.4265 13.4034 13.4452C13.3566 13.4639 13.3005 13.4733 13.2444 13.4733C13.1696 13.4733 13.1041 13.4546 13.048 13.4265C12.9919 13.3984 12.9451 13.3517 12.917 13.3049C12.8983 13.2675 12.8796 13.2207 12.8703 13.174H13.7027V13.1552C13.7027 13.1459 13.7027 13.1459 13.7027 13.1365C13.7027 13.1272 13.7027 13.1178 13.7027 13.1178C13.7214 13.0243 13.7027 12.9308 13.656 12.8559ZM12.9264 12.9308C12.9544 12.8746 12.9919 12.8372 13.048 12.8092C13.0947 12.7811 13.1602 12.7624 13.2163 12.7624C13.2818 12.7624 13.3379 12.7811 13.3847 12.8092C13.4315 12.8372 13.4782 12.884 13.5063 12.9308C13.525 12.9682 13.5437 13.0056 13.5437 13.0524H12.889C12.8983 13.0056 12.9077 12.9682 12.9264 12.9308Z" fill="#002655"/>
</svg>
