<svg width="15" height="16" viewBox="0 0 15 16" fill="none" xmlns="http://www.w3.org/2000/svg">
<path d="M3.90748 8.80553C3.79652 8.68792 3.79195 8.49189 3.89783 8.36811C3.92282 8.33872 3.95286 8.31511 3.9862 8.29863C4.01954 8.28215 4.05551 8.27314 4.09203 8.27213C4.12855 8.27111 4.16489 8.27811 4.19894 8.29271C4.23299 8.30731 4.26407 8.32923 4.29037 8.35719L7.21893 11.4751V1.31C7.21893 1.13862 7.34461 1 7.5 1C7.65514 1 7.78082 1.13862 7.78082 1.31V11.4592L10.6002 8.36083C10.7094 8.24125 10.8853 8.24293 10.9927 8.36447C11.1001 8.48629 11.0986 8.68232 10.9894 8.80189L7.72115 12.3934C7.69496 12.4305 7.66141 12.4605 7.62308 12.4812C7.58475 12.5018 7.54265 12.5125 7.5 12.5124C7.4124 12.5124 7.33445 12.4684 7.28266 12.3993L3.90748 8.80553ZM13.4379 11.9058C13.4379 11.7347 13.5638 11.5958 13.7189 11.5958C13.8741 11.5958 14 11.7347 14 11.9058V14.69C14 14.8614 13.8741 15 13.7189 15H1.28107C1.12568 15 1 14.8614 1 14.69V11.9058C1 11.7347 1.12568 11.5958 1.28107 11.5958C1.43621 11.5958 1.56215 11.7347 1.56215 11.9058V14.3803H13.4379V11.9058Z" fill="black"/>
</svg>
