<svg width="25" height="23" viewBox="0 0 25 23" fill="none" xmlns="http://www.w3.org/2000/svg">
<path d="M13.1869 13.2109C13.1298 13.1537 13.0669 13.1049 13.0004 13.0646V22.9316H12.0001V13.0665C11.9345 13.1068 11.8707 13.1547 11.8135 13.2128L8.61005 16.4143L7.90318 15.7075L11.1067 12.5059C11.8754 11.7381 13.126 11.7363 13.8937 12.5059L17.0972 15.7075L16.3904 16.4143L13.1869 13.2128L13.1869 13.2109ZM24.4997 5.43257V22.9327H15.4998V21.9324H23.4994V7.93286H1.50031V21.9324L9.49988 21.9333V22.9336L0.5 22.9327V3.43292C0.5 2.05387 1.62218 0.933594 3.00029 0.933594H8.61861L12.6189 2.93325H22.0003C23.3785 2.93325 24.5006 4.05449 24.5006 5.43353L24.4997 5.43257ZM23.4994 6.93255V5.43257C23.4994 4.60571 22.8262 3.93259 21.9994 3.93259L12.3818 3.93353L8.38149 1.93294H3.00029C2.17343 1.93294 1.50031 2.60606 1.50031 3.43292V6.93255L23.4994 6.93349V6.93255Z" fill="black"/>
</svg>
