<svg width="29" height="19" viewBox="0 0 29 19" fill="none" xmlns="http://www.w3.org/2000/svg">
<path d="M2.16077 0.5H27.1228C27.9106 0.5 28.5492 1.13863 28.5492 1.9264V16.9036C28.5492 17.6914 27.9106 18.33 27.1228 18.33H2.16077C1.37301 18.33 0.734375 17.6914 0.734375 16.9036V1.9264C0.734375 1.13863 1.37301 0.5 2.16077 0.5Z" fill="#16366F"/>
<path d="M16.7476 9.41269C16.7476 12.9481 13.8816 15.8137 10.3463 15.8137C6.81095 15.8137 3.94531 12.948 3.94531 9.41269C3.94531 5.87761 6.81102 3.01172 10.3463 3.01172C13.8815 3.01172 16.7476 5.87771 16.7476 9.41269Z" fill="#D9222A"/>
<path d="M18.9388 3.01172C17.2849 3.01172 15.7778 3.63919 14.6418 4.6687C14.4103 4.8787 14.1943 5.10507 13.9954 5.34609H15.2887C15.4658 5.56137 15.6287 5.78785 15.7767 6.0241H13.5075C13.371 6.24237 13.2478 6.46874 13.1387 6.70192H16.1453C16.2484 6.92248 16.3389 7.14874 16.4163 7.3796H12.8677C12.7931 7.60194 12.731 7.82824 12.6816 8.05747H16.6021C16.698 8.50286 16.7463 8.9572 16.7462 9.41283C16.7462 10.1237 16.6302 10.8076 16.4162 11.4462H12.8676C12.9448 11.6772 13.0352 11.9035 13.1384 12.1241H16.1452C16.0359 12.3573 15.9127 12.5837 15.7762 12.8021H13.5073C13.6555 13.0385 13.8187 13.2649 13.9954 13.4795H15.2883C15.0897 13.721 14.8736 13.9475 14.6418 14.1574C15.7779 15.1868 17.2848 15.814 18.9388 15.814C22.4741 15.8139 25.3402 12.9483 25.3402 9.41301C25.3402 5.87803 22.4742 3.01204 18.9388 3.01204" fill="#EE9F2D"/>
<path d="M24.4859 12.984C24.4859 12.8699 24.5783 12.7772 24.6926 12.7772C24.8068 12.7772 24.8993 12.8699 24.8993 12.984C24.8993 13.0981 24.8068 13.1908 24.6926 13.1908C24.5784 13.1908 24.4859 13.0982 24.4859 12.984ZM24.6926 13.1412C24.7794 13.1412 24.8497 13.0708 24.8498 12.984C24.8498 12.8973 24.7795 12.827 24.6927 12.827H24.6926C24.606 12.8268 24.5357 12.897 24.5355 12.9836V12.9841C24.5354 13.0708 24.6057 13.1412 24.6924 13.1413C24.6924 13.1412 24.6925 13.1412 24.6926 13.1412ZM24.6647 13.0749H24.6223V12.8932H24.6989C24.715 12.8932 24.7313 12.8932 24.7455 12.9023C24.7602 12.9122 24.7685 12.9298 24.7685 12.9479C24.7685 12.9682 24.7565 12.9872 24.737 12.9947L24.7704 13.0749H24.7235L24.6957 13.003H24.6647V13.0749H24.6647ZM24.6647 12.9718H24.6881C24.6969 12.9718 24.7061 12.9726 24.714 12.9683C24.721 12.9638 24.7245 12.9555 24.7245 12.9475C24.7245 12.9405 24.7203 12.9325 24.7143 12.929C24.7069 12.9244 24.6952 12.9254 24.6872 12.9254H24.6647V12.9718ZM8.84946 10.1168C8.77654 10.1083 8.74445 10.1061 8.69434 10.1061C8.30048 10.1061 8.10107 10.2412 8.10107 10.5079C8.10107 10.6723 8.19842 10.777 8.35022 10.777C8.63329 10.777 8.8373 10.5074 8.84946 10.1168ZM9.3548 11.2934H8.77904L8.79227 11.0197C8.61664 11.2361 8.38232 11.3389 8.06391 11.3389C7.68727 11.3389 7.42902 11.0447 7.42902 10.6175C7.42902 9.97476 7.87819 9.59976 8.6492 9.59976C8.72794 9.59976 8.82896 9.60689 8.93237 9.62005C8.95395 9.53301 8.95958 9.49574 8.95958 9.44888C8.95958 9.27386 8.83848 9.20861 8.51383 9.20861C8.17389 9.20476 7.89349 9.28959 7.77835 9.3275C7.78562 9.28364 7.87463 8.73347 7.87463 8.73347C8.22096 8.63198 8.44936 8.59379 8.7064 8.59379C9.3031 8.59379 9.61915 8.86167 9.61858 9.36804C9.61972 9.50373 9.59729 9.67115 9.56224 9.89121C9.5019 10.2739 9.37253 11.0936 9.3548 11.2934ZM7.13825 11.2934H6.44331L6.84138 8.79734L5.95255 11.2934H5.47899L5.42051 8.8116L5.00207 11.2934H4.35156L4.89495 8.04645H5.89414L5.95476 9.86389L6.56427 8.04645H7.67568L7.13825 11.2934ZM19.7968 10.1168C19.7242 10.1083 19.6919 10.1061 19.642 10.1061C19.2483 10.1061 19.0488 10.2412 19.0488 10.5079C19.0488 10.6723 19.146 10.777 19.2978 10.777C19.5809 10.777 19.7851 10.5074 19.7968 10.1168ZM20.3026 11.2934H19.7269L19.7399 11.0197C19.5643 11.2361 19.3298 11.3389 19.0117 11.3389C18.6349 11.3389 18.377 11.0447 18.377 10.6175C18.377 9.97476 18.8258 9.59976 19.597 9.59976C19.6757 9.59976 19.7766 9.60689 19.8799 9.62005C19.9014 9.53301 19.9071 9.49574 19.9071 9.44888C19.9071 9.27386 19.7861 9.20861 19.4615 9.20861C19.1215 9.20476 18.8414 9.28959 18.7258 9.3275C18.7331 9.28364 18.8224 8.73347 18.8224 8.73347C19.1688 8.63198 19.397 8.59379 19.6537 8.59379C20.2507 8.59379 20.5668 8.86167 20.5662 9.36804C20.5673 9.50373 20.5449 9.67115 20.5099 9.89121C20.4499 10.2739 20.3201 11.0936 20.3026 11.2934ZM12.4435 11.2533C12.2533 11.3132 12.105 11.3389 11.9443 11.3389C11.589 11.3389 11.3951 11.1347 11.3951 10.7588C11.39 10.6422 11.4462 10.3352 11.4903 10.055C11.5304 9.8083 11.7916 8.25306 11.7916 8.25306H12.4824L12.4017 8.65277H12.819L12.7247 9.28738H12.306C12.2258 9.78958 12.1115 10.4151 12.1102 10.498C12.1102 10.6342 12.1828 10.6936 12.348 10.6936C12.4272 10.6936 12.4886 10.6855 12.5354 10.6686L12.4435 11.2533ZM14.5614 11.2319C14.3241 11.3044 14.0951 11.3395 13.8525 11.3389C13.0793 11.3382 12.6762 10.9343 12.6762 10.161C12.6762 9.25832 13.189 8.59383 13.885 8.59383C14.4545 8.59383 14.8183 8.96587 14.8183 9.54937C14.8183 9.74297 14.7933 9.93197 14.7332 10.1988H13.3576C13.3111 10.5819 13.5562 10.7415 13.958 10.7415C14.2053 10.7415 14.4283 10.6905 14.6762 10.5752L14.5614 11.2319ZM14.1731 9.66645C14.177 9.61142 14.2464 9.19513 13.8517 9.19513C13.6317 9.19513 13.4744 9.36287 13.4103 9.66645H14.1731ZM9.77199 9.48754C9.77199 9.82157 9.93392 10.0519 10.3012 10.2248C10.5826 10.3571 10.6262 10.3963 10.6262 10.5162C10.6262 10.6808 10.5021 10.7551 10.2271 10.7551C10.0198 10.7551 9.82698 10.7228 9.60453 10.651C9.60453 10.651 9.51313 11.233 9.50896 11.2608C9.66693 11.2953 9.80779 11.3272 10.2321 11.3389C10.9654 11.3389 11.304 11.0597 11.304 10.4563C11.304 10.0935 11.1623 9.88055 10.8142 9.72054C10.5228 9.58682 10.4893 9.55693 10.4893 9.43362C10.4893 9.29084 10.6048 9.21802 10.8295 9.21802C10.9659 9.21802 11.1522 9.23257 11.3287 9.25771L11.4276 8.64525C11.2477 8.61672 10.9749 8.59383 10.8161 8.59383C10.0387 8.59383 9.7696 8.99989 9.77199 9.48754ZM17.9413 8.66322C18.1344 8.66322 18.3143 8.71386 18.5623 8.83867L18.6759 8.13396C18.5742 8.09402 18.2158 7.85938 17.9122 7.85938C17.4472 7.85938 17.054 8.0901 16.7775 8.47094C16.3742 8.33736 16.2084 8.60734 16.0052 8.87629L15.8247 8.91833C15.8383 8.82979 15.8507 8.74182 15.8465 8.65281H15.2084C15.1212 9.47003 14.9666 10.2978 14.8457 11.116L14.8141 11.2935H15.5094C15.6254 10.5395 15.689 10.0567 15.7276 9.73006L15.9895 9.58443C16.0285 9.43893 16.151 9.3898 16.3965 9.39571C16.3635 9.5743 16.347 9.75552 16.3472 9.93718C16.3472 10.801 16.8133 11.3389 17.5615 11.3389C17.7542 11.3389 17.9195 11.3135 18.1756 11.2442L18.2979 10.5038C18.0675 10.6172 17.8785 10.6706 17.7073 10.6706C17.3034 10.6706 17.0589 10.3724 17.0589 9.87951C17.0589 9.16453 17.4225 8.66322 17.9413 8.66322Z" fill="black"/>
<path d="M7.33942 11.0981H6.64437L7.04269 8.60235L6.15387 11.0981H5.68023L5.62168 8.61661L5.20328 11.0981H4.55273L5.09612 7.85156H6.09531L6.12341 9.86143L6.79753 7.85156H7.87685L7.33942 11.0981Z" fill="white"/>
<path d="M23.8252 8.04688L23.6712 8.98502C23.4811 8.73497 23.277 8.554 23.0075 8.554C22.6568 8.554 22.3377 8.81981 22.1288 9.21103C21.8379 9.15069 21.5369 9.04831 21.5369 9.04831L21.5368 9.0507C21.5602 8.832 21.5696 8.69856 21.5675 8.65324H20.9292C20.8423 9.47046 20.6878 10.2982 20.567 11.1165L20.5352 11.2939H21.2302C21.3241 10.6842 21.3961 10.178 21.4489 9.77653C21.6864 9.56196 21.8053 9.37475 22.0452 9.38723C21.939 9.64419 21.8767 9.9401 21.8767 10.2437C21.8767 10.9038 22.2107 11.3393 22.7159 11.3393C22.9706 11.3393 23.166 11.2515 23.3566 11.048L23.3241 11.2935H23.9814L24.5107 8.04688H23.8252ZM22.9562 10.6836C22.7196 10.6836 22.6002 10.5086 22.6002 10.1631C22.6002 9.64416 22.8238 9.27608 23.1391 9.27608C23.3778 9.27608 23.5071 9.45808 23.5071 9.79343C23.5071 10.317 23.28 10.6836 22.9562 10.6836Z" fill="black"/>
<path d="M9.04907 9.92509C8.97625 9.91667 8.94401 9.91439 8.89409 9.91439C8.50019 9.91439 8.30092 10.0495 8.30092 10.3162C8.30092 10.4804 8.39827 10.5853 8.54983 10.5853C8.83314 10.5853 9.03716 10.3157 9.04907 9.92509ZM9.55469 11.1013H8.97892L8.99201 10.828C8.81653 11.0439 8.58192 11.1472 8.2638 11.1472C7.88698 11.1472 7.62891 10.853 7.62891 10.4258C7.62891 9.78281 8.0779 9.40802 8.84905 9.40802C8.92782 9.40802 9.02885 9.41515 9.13212 9.42838C9.15366 9.3413 9.15929 9.30404 9.15929 9.25693C9.15929 9.08191 9.03837 9.01694 8.71368 9.01694C8.37359 9.01309 8.09338 9.09796 7.97805 9.1354C7.98533 9.09168 8.07434 8.54209 8.07434 8.54209C8.42056 8.44017 8.64921 8.40194 8.90596 8.40194C9.50284 8.40194 9.819 8.67004 9.81843 9.17595C9.81946 9.31217 9.79686 9.47948 9.76194 9.69926C9.70179 10.0817 9.57223 10.9019 9.55469 11.1013ZM18.8755 7.94211L18.7617 8.647C18.5138 8.52233 18.3338 8.47152 18.1409 8.47152C17.622 8.47152 17.2584 8.97283 17.2584 9.68777C17.2584 10.1806 17.5029 10.4787 17.9068 10.4787C18.0779 10.4787 18.2668 10.4255 18.4971 10.312L18.3751 11.0519C18.1189 11.1218 17.9538 11.1472 17.7608 11.1472C17.0128 11.1472 16.5466 10.6093 16.5466 9.74543C16.5466 8.5847 17.1906 7.77344 18.1117 7.77344C18.415 7.77347 18.7736 7.90213 18.8755 7.94211ZM19.9967 9.92509C19.9239 9.91667 19.8918 9.91439 19.8417 9.91439C19.448 9.91439 19.2486 10.0495 19.2486 10.3162C19.2486 10.4804 19.3459 10.5853 19.4976 10.5853C19.7807 10.5853 19.9848 10.3157 19.9967 9.92509ZM20.5023 11.1013H19.9264L19.9396 10.828C19.764 11.0439 19.5295 11.1472 19.2115 11.1472C18.8348 11.1472 18.5766 10.853 18.5766 10.4258C18.5766 9.78281 19.0257 9.40802 19.7966 9.40802C19.8755 9.40802 19.9764 9.41515 20.0797 9.42838C20.1012 9.3413 20.1069 9.30404 20.1069 9.25693C20.1069 9.08191 19.986 9.01694 19.6613 9.01694C19.3214 9.01309 19.041 9.09796 18.9257 9.1354C18.933 9.09168 19.0221 8.54209 19.0221 8.54209C19.3684 8.44017 19.5968 8.40194 19.8536 8.40194C20.4506 8.40194 20.7666 8.67004 20.7659 9.17595C20.7671 9.31217 20.7447 9.47948 20.7096 9.69926C20.6496 10.0817 20.5197 10.9019 20.5023 11.1013ZM12.6432 11.0613C12.4529 11.1212 12.3046 11.1472 12.144 11.1472C11.7887 11.1472 11.5948 10.943 11.5948 10.5671C11.5899 10.4501 11.6461 10.1435 11.6902 9.86329C11.7302 9.61631 11.9914 8.06129 11.9914 8.06129H12.682L12.6015 8.4611H12.956L12.8617 9.09543H12.5059C12.4257 9.59791 12.3111 10.223 12.31 10.306C12.31 10.4426 12.3828 10.5016 12.5478 10.5016C12.627 10.5016 12.6883 10.4938 12.7352 10.4769L12.6432 11.0613ZM14.7612 11.0402C14.524 11.1127 14.2947 11.1477 14.0522 11.1472C13.279 11.1464 12.8759 10.7426 12.8759 9.96924C12.8759 9.06629 13.3887 8.40198 14.0848 8.40198C14.6543 8.40198 15.018 8.77388 15.018 9.35767C15.018 9.55141 14.9931 9.74041 14.9331 10.0071H13.5575C13.5109 10.3901 13.7561 10.5499 14.1579 10.5499C14.405 10.5499 14.6282 10.4988 14.876 10.3831L14.7612 11.0402ZM14.3727 9.47431C14.3769 9.41947 14.4462 9.00299 14.0513 9.00299C13.8315 9.00299 13.6741 9.1712 13.6101 9.47431H14.3727ZM9.97159 9.29587C9.97159 9.62983 10.1336 9.85987 10.5009 10.0331C10.7822 10.1654 10.8258 10.2047 10.8258 10.3245C10.8258 10.4891 10.7016 10.5634 10.4269 10.5634C10.2194 10.5634 10.0266 10.531 9.80399 10.4593C9.80399 10.4593 9.71291 11.0412 9.70878 11.0691C9.86639 11.1035 10.0074 11.135 10.4317 11.1472C11.1652 11.1472 11.5037 10.868 11.5037 10.2648C11.5037 9.90173 11.362 9.68884 11.0138 9.52884C10.7225 9.39483 10.6888 9.36541 10.6888 9.24192C10.6888 9.09928 10.8045 9.02589 11.0291 9.02589C11.1653 9.02589 11.3516 9.04087 11.5284 9.06601L11.6272 8.45337C11.4475 8.42484 11.1747 8.40198 11.0158 8.40198C10.2383 8.40198 9.96938 8.80776 9.97159 9.29587ZM24.1803 11.1013H23.5229L23.5556 10.8555C23.3649 11.0594 23.1695 11.1472 22.9149 11.1472C22.4096 11.1472 22.0758 10.7117 22.0758 10.0515C22.0758 9.17324 22.5936 8.43283 23.2065 8.43283C23.476 8.43283 23.6801 8.54294 23.8699 8.79285L24.0242 7.85471H24.7096L24.1803 11.1013ZM23.1553 10.4912C23.4789 10.4912 23.7062 10.1245 23.7062 9.60137C23.7062 9.26599 23.5768 9.08398 23.338 9.08398C23.0229 9.08398 22.799 9.45188 22.799 9.97102C22.799 10.3164 22.9187 10.4912 23.1553 10.4912ZM21.1282 8.4611C21.0413 9.27832 20.8867 10.1061 20.7659 10.9239L20.7341 11.1013H21.4291C21.6777 9.48679 21.7379 9.17149 22.1277 9.211C22.1898 8.88057 22.3053 8.59112 22.3915 8.44506C22.1004 8.38444 21.9379 8.54894 21.7251 8.86139C21.7419 8.72634 21.7727 8.59515 21.7666 8.4611H21.1282ZM15.4077 8.4611C15.3204 9.27832 15.1659 10.1061 15.0451 10.9239L15.0135 11.1013H15.7089C15.9571 9.48679 16.0172 9.17149 16.4067 9.211C16.4691 8.88057 16.5847 8.59112 16.6706 8.44506C16.3798 8.38444 16.2171 8.54894 16.0045 8.86139C16.0213 8.72634 16.0518 8.59515 16.0459 8.4611H15.4077ZM24.4856 10.8946C24.4856 10.78 24.5782 10.6878 24.6923 10.6878C24.8063 10.6877 24.8989 10.78 24.899 10.8941V10.8946C24.8989 11.0087 24.8064 11.1012 24.6923 11.1013C24.5782 11.1012 24.4857 11.0087 24.4856 10.8946ZM24.6923 11.0517C24.779 11.0517 24.8493 10.9814 24.8493 10.8947V10.8947C24.8494 10.8079 24.7792 10.7375 24.6925 10.7375H24.6923C24.6055 10.7375 24.5351 10.8079 24.5351 10.8947C24.5352 10.9814 24.6056 11.0517 24.6923 11.0517ZM24.6644 10.985H24.622V10.8037H24.6988C24.7147 10.8037 24.7312 10.804 24.745 10.8127C24.7599 10.8228 24.7684 10.8401 24.7684 10.8582C24.7684 10.8787 24.7563 10.8979 24.7367 10.9051L24.7702 10.9849H24.7232L24.6954 10.9133H24.6644V10.9849V10.985ZM24.6644 10.8823H24.6877C24.6964 10.8823 24.706 10.8829 24.7137 10.8787C24.7206 10.8743 24.7242 10.8658 24.7242 10.8578C24.7239 10.8503 24.7201 10.8434 24.714 10.8391C24.7067 10.8349 24.6946 10.8361 24.6868 10.8361H24.6643V10.8823H24.6644Z" fill="white"/>
</svg>
