<svg width="27" height="19" viewBox="0 0 27 19" fill="none" xmlns="http://www.w3.org/2000/svg">
<path d="M24.5056 0.6875H2.96278C1.83454 0.6875 0.919922 1.60212 0.919922 2.73036V16.1018C0.919922 17.23 1.83454 18.1446 2.96278 18.1446H24.5056C25.6339 18.1446 26.5485 17.23 26.5485 16.1018V2.73036C26.5485 1.60212 25.6339 0.6875 24.5056 0.6875Z" fill="white"/>
<path fill-rule="evenodd" clip-rule="evenodd" d="M2.96295 0.871429C1.93727 0.871429 1.1058 1.7029 1.1058 2.72857V16.1C1.1058 17.1257 1.93727 17.9571 2.96295 17.9571H24.5058C25.5315 17.9571 26.3629 17.1257 26.3629 16.1V2.72857C26.3629 1.7029 25.5315 0.871429 24.5058 0.871429H2.96295ZM0.734375 2.72857C0.734375 1.49777 1.73214 0.5 2.96295 0.5H24.5058C25.7366 0.5 26.7344 1.49777 26.7344 2.72857V16.1C26.7344 17.3308 25.7366 18.3286 24.5058 18.3286H2.96295C1.73214 18.3286 0.734375 17.3308 0.734375 16.1V2.72857Z" fill="#A9AEBC"/>
<path fill-rule="evenodd" clip-rule="evenodd" d="M8.62831 12.5797H7.05323L5.87209 8.07358C5.81604 7.86632 5.697 7.68306 5.5219 7.5967C5.08492 7.37968 4.6034 7.20693 4.07812 7.11983V6.94633H6.61546C6.96568 6.94633 7.22832 7.20693 7.27208 7.5096L7.88493 10.76L9.45927 6.94633H10.9906L8.62831 12.5797ZM11.8661 12.5797H10.3785L11.6034 6.94633H13.091L11.8661 12.5797ZM15.0155 8.50693C15.0593 8.20354 15.3219 8.03005 15.6283 8.03005C16.1098 7.98648 16.6343 8.07362 17.0721 8.2899L17.3347 7.077C16.897 6.90351 16.4155 6.81641 15.9785 6.81641C14.5347 6.81641 13.4841 7.5967 13.4841 8.67968C13.4841 9.50354 14.2283 9.93611 14.7536 10.1967C15.3219 10.4566 15.5408 10.63 15.497 10.8899C15.497 11.2797 15.0593 11.4532 14.6223 11.4532C14.097 11.4532 13.5717 11.3232 13.091 11.1062L12.8283 12.3198C13.3536 12.5361 13.9219 12.6232 14.4472 12.6232C16.0661 12.666 17.0721 11.8865 17.0721 10.7164C17.0721 9.24291 15.0155 9.15655 15.0155 8.50693ZM22.2781 12.5797L21.097 6.94633H19.8283C19.5657 6.94633 19.303 7.11983 19.2155 7.37968L17.0283 12.5797H18.5596L18.8653 11.7566H20.7468L20.9219 12.5797H22.2781ZM20.0472 8.46339L20.4842 10.5865H19.2593L20.0472 8.46339Z" fill="#172B85"/>
</svg>
