<svg width="8" height="8" viewBox="0 0 8 8" fill="none" xmlns="http://www.w3.org/2000/svg">
<path fill-rule="evenodd" clip-rule="evenodd" d="M1.71484 0.85714C1.71484 0.38376 2.0986 0 2.57199 0H6.0006C6.0763 0 6.149 0.0301002 6.2026 0.0836802L7.9169 1.79797C7.9704 1.85155 8.0006 1.92422 8.0006 2V7.1429C8.0006 7.6163 7.6168 8 7.1434 8H4.00056V7.4286H7.1434C7.3012 7.4286 7.4291 7.3007 7.4291 7.1429V2.28571H6.572C6.0986 2.28571 5.71484 1.90196 5.71484 1.42857V0.57143H2.57199C2.41419 0.57143 2.28627 0.69935 2.28627 0.85714V3.42857H1.71484V0.85714ZM6.2863 0.97549L7.0251 1.71429H6.572C6.4142 1.71429 6.2863 1.58637 6.2863 1.42857V0.97549Z" fill="black"/>
<path d="M1.99972 5.14258C2.15752 5.14258 2.28544 5.27049 2.28544 5.42829V5.71401H2.57115C2.72895 5.71401 2.85686 5.84192 2.85686 5.99972C2.85686 6.1575 2.72895 6.2854 2.57115 6.2854H2.28544V6.5711C2.28544 6.7289 2.15752 6.8569 1.99972 6.8569C1.84192 6.8569 1.71401 6.7289 1.71401 6.5711V6.2854H1.42829C1.2705 6.2854 1.14258 6.1575 1.14258 5.99972C1.14258 5.84192 1.2705 5.71401 1.42829 5.71401H1.71401V5.42829C1.71401 5.27049 1.84193 5.14258 1.99972 5.14258Z" fill="black"/>
<path fill-rule="evenodd" clip-rule="evenodd" d="M0 6C0 4.89543 0.89543 4 2 4C3.10457 4 4 4.89543 4 6C4 7.1046 3.10457 8 2 8C0.89543 8 0 7.1046 0 6ZM2 4.57143C1.21102 4.57143 0.57143 5.21103 0.57143 6C0.57143 6.789 1.21102 7.4286 2 7.4286C2.78897 7.4286 3.42857 6.789 3.42857 6C3.42857 5.21103 2.78897 4.57143 2 4.57143Z" fill="black"/>
</svg>
