<svg width="44" height="54" viewBox="0 0 44 54" fill="none" xmlns="http://www.w3.org/2000/svg">
<path d="M28.7356 26.9428V51.7833C28.7356 52.4216 28.3451 52.9947 27.7516 53.2282C27.5674 53.3009 27.3741 53.3358 27.183 53.3358C26.7608 53.3358 26.3469 53.163 26.0474 52.8415L14.7628 40.7351L3.47816 52.8415C3.04378 53.3085 2.36455 53.4632 1.77401 53.2282C1.18045 52.9947 0.790039 52.4216 0.790039 51.7833V14.5226C0.790039 11.9542 2.87928 9.86499 5.44763 9.86499H20.9729C21.8303 9.86499 22.5254 10.5594 22.5254 11.4175C22.5254 12.2757 21.8303 12.97 20.9729 12.97H5.44763C4.59176 12.97 3.8951 13.666 3.8951 14.5226V47.8413L13.6272 37.3996C14.214 36.7689 15.3116 36.7689 15.8984 37.3996L25.6305 47.8413V26.9428C25.6305 26.0847 26.3256 25.3903 27.183 25.3903C28.0404 25.3903 28.7356 26.0847 28.7356 26.9428ZM31.8406 14.5226H28.7356V11.4175C28.7356 10.5594 28.0404 9.86499 27.183 9.86499C26.3256 9.86499 25.6305 10.5594 25.6305 11.4175V14.5226H22.5254C21.6681 14.5226 20.9729 15.217 20.9729 16.0751C20.9729 16.9332 21.6681 17.6276 22.5254 17.6276H25.6305V20.7327C25.6305 21.5908 26.3256 22.2852 27.183 22.2852C28.0404 22.2852 28.7356 21.5908 28.7356 20.7327V17.6276H31.8406C32.698 17.6276 33.3931 16.9332 33.3931 16.0751C33.3931 15.217 32.698 14.5226 31.8406 14.5226Z" fill="#020202"/>
<path d="M26.6007 31.3838C34.4838 31.3838 40.8743 24.9933 40.8743 17.1103C40.8743 9.22717 34.4838 2.83667 26.6007 2.83667C18.7176 2.83667 12.3271 9.22717 12.3271 17.1103C12.3271 24.9933 18.7176 31.3838 26.6007 31.3838Z" fill="#020202" stroke="#F4F4F4" stroke-width="5"/>
<path d="M21.7432 18.2527H25.4592V21.9687C25.4592 22.6003 25.9707 23.1104 26.6008 23.1104C27.2324 23.1104 27.7425 22.5988 27.7425 21.9687V18.2527H31.4584C32.09 18.2527 32.6001 17.7412 32.6001 17.1111C32.6001 16.481 32.0885 15.9695 31.4584 15.9695H27.744V12.252C27.744 11.6204 27.2324 11.1104 26.6023 11.1104C25.9707 11.1104 25.4607 11.6219 25.4607 12.252V15.968H21.7432C21.1131 15.9695 20.6016 16.4795 20.6016 17.1111C20.6016 17.7427 21.1131 18.2527 21.7432 18.2527Z" fill="white"/>
</svg>
