<svg width="16" height="16" viewBox="0 0 16 16" fill="none" xmlns="http://www.w3.org/2000/svg">
<circle cx="8" cy="8" r="8" fill="#F1F1F4"/>
<path fill-rule="evenodd" clip-rule="evenodd" d="M5.71484 4.85714C5.71484 4.38376 6.0986 4 6.57199 4H10.0006C10.0763 4 10.149 4.0301 10.2026 4.08368L11.9169 5.79797C11.9704 5.85155 12.0006 5.92422 12.0006 6V11.1429C12.0006 11.6163 11.6168 12 11.1434 12H8.00056V11.4286H11.1434C11.3012 11.4286 11.4291 11.3007 11.4291 11.1429V6.28571H10.572C10.0986 6.28571 9.71484 5.90196 9.71484 5.42857V4.57143H6.57199C6.41419 4.57143 6.28627 4.69935 6.28627 4.85714V7.42857H5.71484V4.85714ZM10.2863 4.97549L11.0251 5.71429H10.572C10.4142 5.71429 10.2863 5.58637 10.2863 5.42857V4.97549Z" fill="black"/>
<path d="M5.99972 9.14258C6.15752 9.14258 6.28544 9.27049 6.28544 9.42829V9.71401H6.57115C6.72895 9.71401 6.85686 9.84192 6.85686 9.99972C6.85686 10.1575 6.72895 10.2854 6.57115 10.2854H6.28544V10.5711C6.28544 10.7289 6.15752 10.8569 5.99972 10.8569C5.84192 10.8569 5.71401 10.7289 5.71401 10.5711V10.2854H5.42829C5.2705 10.2854 5.14258 10.1575 5.14258 9.99972C5.14258 9.84192 5.2705 9.71401 5.42829 9.71401H5.71401V9.42829C5.71401 9.27049 5.84193 9.14258 5.99972 9.14258Z" fill="black"/>
<path fill-rule="evenodd" clip-rule="evenodd" d="M4 10C4 8.89543 4.89543 8 6 8C7.10457 8 8 8.89543 8 10C8 11.1046 7.10457 12 6 12C4.89543 12 4 11.1046 4 10ZM6 8.57143C5.21102 8.57143 4.57143 9.21103 4.57143 10C4.57143 10.789 5.21102 11.4286 6 11.4286C6.78897 11.4286 7.42857 10.789 7.42857 10C7.42857 9.21103 6.78897 8.57143 6 8.57143Z" fill="black"/>
</svg>
