<svg height="20" viewBox="0 0 20 19" width="20" xmlns="http://www.w3.org/2000/svg"><g fill="#1E2C4F"><path d="m8.847656 7.84375h-1.484375c-.414062 0-.738281.320312-.738281.707031v.710938c0 .386719.335938.707031.738281.707031h1.484375c.417969 0 .738282-.320312.738282-.707031v-.710938c0-.386719-.335938-.707031-.738282-.707031zm0 0"/><path d="m12.542969 7.84375h-1.484375c-.417969 0-.738282.320312-.738282.707031v.710938c0 .386719.335938.707031.738282.707031h1.484375c.414062 0 .738281-.320312.738281-.707031v-.710938c.011719-.386719-.324219-.707031-.738281-.707031zm0 0"/><path d="m16.25 7.84375h-1.484375c-.414063 0-.734375.320312-.734375.707031v.710938c0 .386719.332031.707031.734375.707031h1.484375c.417969 0 .738281-.320312.738281-.707031v-.710938c0-.386719-.335937-.707031-.738281-.707031zm0 0"/><path d="m5.140625 10.925781h-1.484375c-.417969 0-.738281.320313-.738281.707031v.710938c0 .386719.335937.707031.738281.707031h1.484375c.414063 0 .734375-.320312.734375-.707031v-.710938c0-.386718-.320312-.707031-.734375-.707031zm0 0"/><path d="m8.847656 10.925781h-1.484375c-.414062 0-.738281.320313-.738281.707031v.710938c0 .386719.335938.707031.738281.707031h1.484375c.417969 0 .738282-.320312.738282-.707031v-.710938c0-.386718-.335938-.707031-.738282-.707031zm0 0"/><path d="m12.542969 10.925781h-1.484375c-.417969 0-.738282.320313-.738282.707031v.710938c0 .386719.335938.707031.738282.707031h1.484375c.414062 0 .738281-.320312.738281-.707031v-.710938c.011719-.386718-.324219-.707031-.738281-.707031zm0 0"/><path d="m16.25 10.925781h-1.484375c-.414063 0-.734375.320313-.734375.707031v.710938c0 .386719.332031.707031.734375.707031h1.484375c.417969 0 .738281-.320312.738281-.707031v-.710938c0-.386718-.335937-.707031-.738281-.707031zm0 0"/><path d="m5.140625 14.003906h-1.484375c-.417969 0-.738281.324219-.738281.710938v.707031c0 .386719.335937.710937.738281.710937h1.484375c.414063 0 .734375-.324218.734375-.710937v-.707031c0-.386719-.320312-.710938-.734375-.710938zm0 0"/><path d="m8.847656 14.003906h-1.484375c-.414062 0-.738281.324219-.738281.710938v.707031c0 .386719.335938.710937.738281.710937h1.484375c.417969 0 .738282-.324218.738282-.710937v-.707031c0-.386719-.335938-.710938-.738282-.710938zm0 0"/><path d="m12.542969 14.003906h-1.484375c-.417969 0-.738282.324219-.738282.710938v.707031c0 .386719.335938.710937.738282.710937h1.484375c.414062 0 .738281-.324218.738281-.710937v-.707031c.011719-.386719-.324219-.710938-.738281-.710938zm0 0"/><path d="m17.722656 2.132812h-.921875v1.070313c0 .890625-.75 1.609375-1.660156 1.609375-.921875 0-1.660156-.71875-1.660156-1.609375v-1.070313h-1.847657v1.070313c0 .890625-.75 1.609375-1.660156 1.609375s-1.660156-.71875-1.660156-1.609375v-1.070313h-1.847656v1.070313c0 .890625-.75 1.609375-1.660156 1.609375-.921876 0-1.660157-.71875-1.660157-1.609375v-1.070313h-.921875c-1.230468 0-2.222656.953126-2.222656 2.140626v12.582031c0 1.171875.992188 2.136719 2.222656 2.136719h15.554688c1.21875 0 2.222656-.953126 2.222656-2.136719v-12.582031c-.054688-1.171876-1.042969-2.140626-2.277344-2.140626zm.75 14.722657c0 .386719-.332031.707031-.734375.707031h-15.554687c-.417969 0-.738282-.320312-.738282-.707031v-9.734375c0-.386719.335938-.707032.738282-.707032h15.554687c.414063 0 .734375.320313.734375.707032zm0 0"/><path d="m4.765625 4.285156c.617187 0 1.109375-.476562 1.109375-1.070312v-2.140625c0-.589844-.492188-1.0664065-1.109375-1.0664065s-1.109375.4765625-1.109375 1.0664065v2.140625c0 .582031.507812 1.070312 1.109375 1.070312zm0 0"/><path d="m9.960938 4.285156c.613281 0 1.109374-.476562 1.109374-1.070312v-2.140625c0-.589844-.496093-1.0664065-1.109374-1.0664065-.617188 0-1.113282.4765625-1.113282 1.0664065v2.140625c0 .582031.496094 1.070312 1.113282 1.070312zm0 0"/><path d="m15.140625 4.285156c.617187 0 1.109375-.476562 1.109375-1.070312v-2.140625c0-.589844-.492188-1.0664065-1.109375-1.0664065s-1.109375.4765625-1.109375 1.0664065v2.140625c0 .582031.492188 1.070312 1.109375 1.070312zm0 0"/></g></svg>