<svg version="1.2" xmlns="http://www.w3.org/2000/svg" viewBox="0 0 360 150" width="360" height="150">
	<title>Stripe_Logo,_revised_2016-svg</title>
	<style>
		.s0 { fill: #635bff } 
	</style>
	<g id="Layer">
		<path id="Layer" fill-rule="evenodd" class="s0" d="m359.8 86.3h-48.9c1.1 11.8 9.7 15.2 19.4 15.2 9.9 0 17.7-2.1 24.5-5.5v20c-6.8 3.8-15.8 6.5-27.7 6.5-24.4 0-41.4-15.2-41.4-45.3 0-25.4 14.4-45.6 38.2-45.6 23.7 0 36.1 20.2 36.1 45.8 0 2.4-0.2 7.6-0.2 8.9zm-23.4-18.4c0-11.3-6.5-16-12.6-16-6.3 0-13.2 4.7-13.2 16z"/>
		<path id="Layer" fill-rule="evenodd" class="s0" d="m281.2 76.4c0 31.7-16.3 46.1-34.2 46.1-8.8 0-14.1-3.7-17.7-6.3l-0.1 28.3-25 5.3v-116.6h22l1.3 6.2c3.5-3.2 9.8-7.8 19.6-7.8 17.5 0 34 15.8 34.1 44.8zm-24.7 0.7c0-13.1-6.3-23.3-15.4-23.3-5.7 0-9.3 2-11.9 4.9l0.1 37.1c2.4 2.6 5.9 4.7 11.8 4.7 9.2 0 15.4-10 15.4-23.4z"/>
		<path id="Layer" class="s0" d="m169.8 25.7l25.1-5.4v-20.3l-25.1 5.3z"/>
		<path id="Layer" class="s0" d="m169.8 33.3h25.1v87.5h-25.1z"/>
		<path id="Layer" fill-rule="evenodd" class="s0" d="m142.9 40.7l-1.6-7.4h-21.6v87.5h25v-59.3c5.9-7.7 15.9-6.3 19-5.2v-23c-3.2-1.2-14.9-3.4-20.8 7.4z"/>
		<path id="Layer" fill-rule="evenodd" class="s0" d="m92.9 11.6l-24.4 5.2-0.1 80.1c0 14.8 11.1 25.7 25.9 25.7 8.2 0 14.2-1.5 17.5-3.3v-20.3c-3.2 1.3-19 5.9-19-8.9v-35.5h19v-21.3h-19z"/>
		<path id="Layer" fill-rule="evenodd" class="s0" d="m25.3 58.7c0-3.9 3.2-5.4 8.5-5.4 7.6 0 17.2 2.3 24.8 6.4v-23.5c-8.3-3.3-16.5-4.6-24.8-4.6-20.3 0-33.8 10.6-33.8 28.3 0 27.6 38 23.2 38 35.1 0 4.6-4 6.1-9.6 6.1-8.3 0-18.9-3.4-27.3-8v23.8c9.3 4 18.7 5.7 27.3 5.7 20.8 0 35.1-10.3 35.1-28.2-0.1-29.8-38.2-24.5-38.2-35.7z"/>
	</g>
</svg>