<svg width="159" height="159" viewBox="0 0 159 159" fill="none" xmlns="http://www.w3.org/2000/svg">
<g clip-path="url(#clip0_106_2)">
<path d="M158.84 79.5391C158.84 123.249 123.32 159.319 79.6105 158.939C30.8505 158.529 -0.139528 119.269 0.000472365 79.3991C0.170472 35.6991 35.5505 -0.380932 79.2605 -0.000931779C128.01 0.419068 159.13 39.6391 158.84 79.5391ZM79.0305 144.379C115.42 144.379 144.65 115.599 144.73 79.6291C144.749 62.3969 137.924 45.8626 125.756 33.6608C113.588 21.4589 97.0726 14.5882 79.8405 14.5591C43.4505 14.5591 14.2205 43.3491 14.1505 79.3091C14.1319 96.5395 20.9554 113.072 33.1214 125.274C45.2873 137.475 61.8001 144.347 79.0305 144.379Z" fill="#1E2C4F"/>
<path d="M72.3204 64.1992C72.3204 58.9092 72.2104 53.6092 72.3204 48.3192C72.4304 43.0292 75.4004 39.7592 79.4804 39.8092C83.5604 39.8592 86.4804 43.1892 86.4804 48.4692C86.5871 59.2225 86.5871 69.9725 86.4804 80.7192C86.4204 85.9392 83.4104 89.2792 79.3404 89.2292C75.2704 89.1792 72.4404 85.8592 72.3404 80.5792C72.2204 75.1192 72.3204 69.6592 72.3204 64.1992Z" fill="#1E2C4F"/>
<path d="M88.96 109.34C88.9108 111.207 88.3141 113.018 87.244 114.549C86.1739 116.08 84.6776 117.262 82.9411 117.95C81.2046 118.637 79.3044 118.799 77.4766 118.416C75.6487 118.032 73.9739 117.12 72.6601 115.793C71.3462 114.465 70.4514 112.781 70.0868 110.949C69.7221 109.118 69.9037 107.219 70.6089 105.49C71.3142 103.761 72.512 102.277 74.0536 101.222C75.5952 100.168 77.4126 99.5899 79.28 99.5598C80.5654 99.5391 81.8416 99.7788 83.032 100.264C84.2224 100.75 85.3022 101.471 86.2066 102.385C87.1109 103.298 87.821 104.385 88.2942 105.581C88.7674 106.776 88.9939 108.055 88.96 109.34Z" fill="#1E2C4F"/>
</g>
<defs>
<clipPath id="clip0_106_2">
<rect width="158.84" height="158.95" fill="white"/>
</clipPath>
</defs>
</svg>
