<svg width="22" height="23" viewBox="0 0 22 23" fill="none" xmlns="http://www.w3.org/2000/svg">
<path fill-rule="evenodd" clip-rule="evenodd" d="M12.0056 1.61565V16.0258L14.4791 13.4687C14.7155 13.2243 15.1059 13.2181 15.3496 13.4545C15.594 13.691 15.6002 14.0808 15.3638 14.3251L11.8387 17.9694C11.832 17.9765 11.8252 17.9835 11.8181 17.9903C11.6988 18.106 11.5444 18.1636 11.39 18.1636C11.2357 18.1636 11.0813 18.106 10.9616 17.9903C10.954 17.9829 10.9466 17.9754 10.9394 17.9677L7.41597 14.3251C7.17954 14.0808 7.18577 13.691 7.43014 13.4545C7.6739 13.2181 8.06428 13.2243 8.30071 13.4687L10.7743 16.026V1.61565C10.7743 1.27571 11.0503 1 11.39 1C11.7306 1 12.0056 1.27594 12.0056 1.61565ZM20.5487 14.2367C20.5487 13.8964 20.8244 13.6211 21.1644 13.6211C21.5047 13.6211 21.78 13.8962 21.78 14.2367V19.0085C21.78 20.706 20.399 22.087 18.7015 22.087H4.07852C2.38099 22.087 1 20.706 1 19.0085V14.2367C1 13.8964 1.27571 13.6211 1.61565 13.6211C1.95536 13.6211 2.2313 13.8962 2.2313 14.2367V19.0085C2.2313 20.0271 3.06024 20.8557 4.07852 20.8557H18.7015C19.72 20.8557 20.5487 20.0268 20.5487 19.0085V14.2367Z" fill="#1E2C4F"/>
<path d="M12.0056 16.0258H11.9056V16.273L12.0775 16.0953L12.0056 16.0258ZM14.4791 13.4687L14.4072 13.3992L14.4072 13.3992L14.4791 13.4687ZM15.3496 13.4545L15.28 13.5263L15.2801 13.5264L15.3496 13.4545ZM15.3638 14.3251L15.2919 14.2556L15.2919 14.2556L15.3638 14.3251ZM11.8387 17.9694L11.7668 17.8999L11.7658 17.901L11.8387 17.9694ZM11.8181 17.9903L11.8878 18.0621L11.8878 18.0621L11.8181 17.9903ZM11.39 18.1636L11.39 18.0636H11.39L11.39 18.1636ZM10.9616 17.9903L11.0312 17.9184L11.0312 17.9184L10.9616 17.9903ZM10.9394 17.9677L11.0125 17.8994L11.0113 17.8982L10.9394 17.9677ZM7.41597 14.3251L7.48785 14.2556L7.48784 14.2556L7.41597 14.3251ZM7.43014 13.4545L7.49968 13.5264L7.49977 13.5263L7.43014 13.4545ZM8.30071 13.4687L8.37258 13.3992L8.37258 13.3992L8.30071 13.4687ZM10.7743 16.026L10.7024 16.0955L10.8743 16.2732V16.026H10.7743ZM12.1056 16.0258V1.61565H11.9056V16.0258H12.1056ZM14.4072 13.3992L11.9337 15.9563L12.0775 16.0953L14.551 13.5382L14.4072 13.3992ZM15.4193 13.3828C15.1358 13.1078 14.682 13.1151 14.4072 13.3992L14.5509 13.5383C14.749 13.3336 15.076 13.3284 15.28 13.5263L15.4193 13.3828ZM15.4357 14.3946C15.7105 14.1106 15.7033 13.6576 15.4192 13.3827L15.2801 13.5264C15.4847 13.7244 15.49 14.0509 15.2919 14.2556L15.4357 14.3946ZM11.9106 18.039L15.4357 14.3946L15.2919 14.2556L11.7668 17.8999L11.9106 18.039ZM11.8878 18.0621C11.8959 18.0542 11.9039 18.0461 11.9116 18.0379L11.7658 17.901C11.7602 17.9069 11.7544 17.9128 11.7485 17.9185L11.8878 18.0621ZM11.39 18.2636C11.5692 18.2636 11.749 18.1967 11.8878 18.0621L11.7485 17.9185C11.6486 18.0154 11.5195 18.0636 11.39 18.0636L11.39 18.2636ZM10.8921 18.0622C11.0311 18.1967 11.2108 18.2636 11.39 18.2636L11.39 18.0636C11.2606 18.0636 11.1314 18.0154 11.0312 17.9184L10.8921 18.0622ZM10.8663 18.036C10.8747 18.0449 10.8833 18.0536 10.8921 18.0622L11.0312 17.9184C11.0247 17.9122 11.0185 17.9059 11.0125 17.8994L10.8663 18.036ZM7.3441 14.3946L10.8676 18.0372L11.0113 17.8982L7.48785 14.2556L7.3441 14.3946ZM7.36061 13.3827C7.0765 13.6576 7.06931 14.1106 7.3441 14.3946L7.48784 14.2556C7.28977 14.0509 7.29504 13.7244 7.49968 13.5264L7.36061 13.3827ZM8.37258 13.3992C8.09775 13.1151 7.64399 13.1078 7.36052 13.3828L7.49977 13.5263C7.7038 13.3284 8.03081 13.3336 8.22884 13.5383L8.37258 13.3992ZM10.8462 15.9564L8.37258 13.3992L8.22883 13.5382L10.7024 16.0955L10.8462 15.9564ZM10.6743 1.61565V16.026H10.8743V1.61565H10.6743ZM11.39 0.9C10.9951 0.9 10.6743 1.22046 10.6743 1.61565H10.8743C10.8743 1.33097 11.1055 1.1 11.39 1.1V0.9ZM12.1056 1.61565C12.1056 1.2208 11.7859 0.9 11.39 0.9V1.1C11.6752 1.1 11.9056 1.33108 11.9056 1.61565H12.1056ZM21.1644 13.5211C20.7692 13.5211 20.4487 13.8411 20.4487 14.2367H20.6487C20.6487 13.9517 20.8796 13.7211 21.1644 13.7211V13.5211ZM21.88 14.2367C21.88 13.8409 21.5599 13.5211 21.1644 13.5211V13.7211C21.4495 13.7211 21.68 13.9514 21.68 14.2367H21.88ZM21.88 19.0085V14.2367H21.68V19.0085H21.88ZM18.7015 22.187C20.4542 22.187 21.88 20.7613 21.88 19.0085H21.68C21.68 20.6508 20.3438 21.987 18.7015 21.987V22.187ZM4.07852 22.187H18.7015V21.987H4.07852V22.187ZM0.9 19.0085C0.9 20.7613 2.32576 22.187 4.07852 22.187V21.987C2.43622 21.987 1.1 20.6508 1.1 19.0085H0.9ZM0.9 14.2367V19.0085H1.1V14.2367H0.9ZM1.61565 13.5211C1.22053 13.5211 0.9 13.8411 0.9 14.2367H1.1C1.1 13.9517 1.3309 13.7211 1.61565 13.7211V13.5211ZM2.3313 14.2367C2.3313 13.8408 2.01049 13.5211 1.61565 13.5211V13.7211C1.90022 13.7211 2.1313 13.9515 2.1313 14.2367H2.3313ZM2.3313 19.0085V14.2367H2.1313V19.0085H2.3313ZM4.07852 20.7557C3.11546 20.7557 2.3313 19.9718 2.3313 19.0085H2.1313C2.1313 20.0823 3.00503 20.9557 4.07852 20.9557V20.7557ZM18.7015 20.7557H4.07852V20.9557H18.7015V20.7557ZM20.4487 19.0085C20.4487 19.9716 19.6648 20.7557 18.7015 20.7557V20.9557C19.7753 20.9557 20.6487 20.082 20.6487 19.0085H20.4487ZM20.4487 14.2367V19.0085H20.6487V14.2367H20.4487Z" fill="#1E2C4F"/>
</svg>
